<svg width="350" height="350" xmlns="http://www.w3.org/2000/svg" version="1.0" preserveAspectRatio="xMidYMid meet" zoomAndPan="magnify">
 <title>portail1a</title>
 <defs>
  <clipPath id="id1">
   <path id="svg_1" clip-rule="nonzero" d="m174.45312,96.24023l6,0l0,13.84375l-6,0l0,-13.84375zm0,0"/>
  </clipPath>
  <clipPath id="id2">
   <path id="svg_2" clip-rule="nonzero" d="m329.78906,134.08398l4.26953,0l0,119.60938l-4.26953,0l0,-119.60938zm0,0"/>
  </clipPath>
  <clipPath id="id3">
   <path id="svg_3" clip-rule="nonzero" d="m328.45312,129.08398l6.67188,0l0,8l-6.67188,0l0,-8zm0,0"/>
  </clipPath>
  <clipPath id="id4">
   <path id="svg_4" clip-rule="nonzero" d="m169.45312,96.24023l6,0l0,13.84375l-6,0l0,-13.84375zm0,0"/>
  </clipPath>
  <clipPath id="id5">
   <path id="svg_5" clip-rule="nonzero" d="m15.94531,134.08398l4.26953,0l0,119.60938l-4.26953,0l0,-119.60938zm0,0"/>
  </clipPath>
  <clipPath id="id6">
   <path id="svg_6" clip-rule="nonzero" d="m14.875,129.08398l6.57812,0l0,8l-6.57812,0l0,-8zm0,0"/>
  </clipPath>
 </defs>
 <g>
  <title>Layer 1</title>
  <g id="svg_223">
   <path id="svg_7" fill-rule="nonzero" d="m332.02734,233.57226l-3.72656,0l0,-19.53515l3.72656,0l0,19.53515" fill="#ffffff"/>
   <path id="svg_8" fill-rule="nonzero" d="m329.07812,232.79882l2.17188,0l0,-17.98828l-2.17188,0l0,17.98828zm3.72266,1.55079l-5.27344,0l0,-21.08985l5.27344,0l0,21.08985" fill="#ffffff"/>
   <path id="svg_9" fill-rule="nonzero" d="m332.02734,178.07226l-3.72656,0l0,-19.53906l3.72656,0l0,19.53906" fill="#ffffff"/>
   <path id="svg_10" fill-rule="nonzero" d="m329.07812,177.29492l2.17188,0l0,-17.98438l-2.17188,0l0,17.98438zm3.72266,1.55078l-5.27344,0l0,-21.08594l5.27344,0l0,21.08594" fill="#ffffff"/>
   <path id="svg_11" fill-rule="nonzero" d="m252.9414,188.28711c-0.02344,0 -0.04687,0 -0.07031,-0.00391c-7.28125,-0.62891 -11.44922,-2.85156 -13.50781,-7.20313c-1.51172,-3.19531 -0.14453,-7.02734 3.04297,-8.54296c2.63671,-1.25 5.78906,-0.11719 7.03515,2.51562c1.03125,2.18359 0.09766,4.80469 -2.08203,5.83594c-1.82422,0.86719 -4.00781,0.08594 -4.87109,-1.74219c-0.35547,-0.74219 -0.39453,-1.57812 -0.11719,-2.35547c0.27344,-0.77734 0.83594,-1.39844 1.58203,-1.75c0.38281,-0.17969 0.84766,-0.01953 1.03125,0.36719c0.18359,0.39062 0.01563,0.85156 -0.36719,1.03516c-0.37109,0.17578 -0.65234,0.48437 -0.78906,0.87109c-0.13672,0.38281 -0.11328,0.80078 0.05859,1.17187c0.24219,0.50782 0.66797,0.89454 1.19532,1.08204c0.53125,0.1914 1.10547,0.16015 1.61328,-0.08204c1.41015,-0.66796 2.01172,-2.35937 1.34375,-3.76562c-0.88281,-1.86328 -3.10938,-2.65625 -4.96485,-1.77734c-2.41796,1.14453 -3.45703,4.05078 -2.30859,6.47265c1.20703,2.55469 3.69141,5.58203 12.23828,6.32031c0.42578,0.03516 0.74219,0.41407 0.70703,0.84375c-0.03515,0.40235 -0.375,0.70704 -0.76953,0.70704" fill="#ffffff"/>
   <path id="svg_12" fill-rule="nonzero" d="m245.33984,178.13086c0.66797,-0.28907 0.97266,-1.06641 0.67969,-1.73047c-0.29297,-0.66407 -1.0625,-0.96875 -1.73047,-0.67969c-0.66406,0.29297 -0.96485,1.06641 -0.67578,1.73047c0.29297,0.66797 1.0625,0.96875 1.72656,0.67969" fill="#ffffff"/>
   <path id="svg_13" fill-rule="nonzero" d="m244.8125,176.38867c-0.07032,0 -0.14063,0.01562 -0.21485,0.04297c-0.26562,0.12109 -0.39453,0.4375 -0.27344,0.71093c0.05469,0.12891 0.16407,0.23438 0.29688,0.28516c0.13281,0.05078 0.28125,0.05078 0.41016,-0.00781c0.26953,-0.1211 0.39453,-0.4375 0.27734,-0.71094c-0.08984,-0.19922 -0.28516,-0.32031 -0.49609,-0.32031zm0.0039,2.6289c-0.25781,0 -0.51172,-0.04687 -0.76172,-0.14453c-0.51953,-0.20312 -0.92578,-0.59765 -1.15234,-1.10937c-0.46094,-1.05469 0.02344,-2.29297 1.07812,-2.75391c1.05469,-0.46484 2.28516,0.02344 2.75,1.07813c0.46094,1.05468 -0.02343,2.29297 -1.07812,2.7539c-0.26563,0.11719 -0.55078,0.17578 -0.83594,0.17578" fill="#ffffff"/>
   <path id="svg_14" fill-rule="nonzero" d="m219.82812,200.19726c-1.35156,0 -2.64844,-0.47265 -3.69531,-1.36328c-1.41797,-1.20312 -2.28125,-2.89062 -2.4336,-4.74609c-0.15234,-1.85547 0.42579,-3.66407 1.63282,-5.08203c3.36718,-3.97657 8.44922,-5.11719 16.48047,-3.69532c0.42187,0.07032 0.70312,0.47657 0.6289,0.89844c-0.07812,0.42188 -0.47656,0.70703 -0.89844,0.62891c-9.51171,-1.6836 -13.03125,0.8125 -15.03125,3.17187c-0.93359,1.10547 -1.38671,2.50781 -1.26953,3.94922c0.1211,1.44531 0.78907,2.75391 1.89453,3.69141c0.85157,0.72265 1.9336,1.07422 3.04688,0.98047c1.10937,-0.08985 2.12109,-0.61329 2.84375,-1.46094c0.55078,-0.65235 0.8125,-1.47656 0.74609,-2.32813c-0.07031,-0.84765 -0.46484,-1.62109 -1.11718,-2.17187c-1.00391,-0.85547 -2.51954,-0.73047 -3.3711,0.27734c-0.63281,0.74219 -0.53906,1.85547 0.19922,2.48438c0.32813,0.27734 0.36719,0.76562 0.08984,1.09375c-0.27734,0.32812 -0.76562,0.36718 -1.08984,0.08984c-1.39453,-1.18359 -1.56641,-3.28125 -0.38672,-4.67187c1.41016,-1.66016 3.90625,-1.86329 5.5625,-0.45704c0.96485,0.81641 1.55469,1.96485 1.65625,3.23047c0.10547,1.26172 -0.28515,2.49219 -1.10547,3.45313c-0.99218,1.17187 -2.3789,1.88281 -3.90234,2.00781c-0.16016,0.01563 -0.31641,0.01953 -0.48047,0.01953" fill="#ffffff"/>
   <path id="svg_15" fill-rule="nonzero" d="m220.78515,193.78711c0.625,0.49609 0.72656,1.40625 0.23047,2.03125c-0.49609,0.62109 -1.40625,0.72656 -2.03125,0.23046c-0.62109,-0.5 -0.72266,-1.41015 -0.22656,-2.03125c0.49609,-0.625 1.40234,-0.72656 2.02734,-0.23046" fill="#ffffff"/>
   <path id="svg_16" fill-rule="nonzero" d="m219.88671,194.24804c-0.02734,0 -0.05078,0 -0.07421,0.00391c-0.17969,0.01953 -0.33594,0.10937 -0.44922,0.25c-0.10938,0.13672 -0.16016,0.3125 -0.14063,0.49219c0.01953,0.17578 0.10547,0.33593 0.2461,0.44922c0.14062,0.10937 0.3125,0.16015 0.49218,0.13671c0.17578,-0.01562 0.33594,-0.10546 0.44532,-0.24609c0.11328,-0.14062 0.16406,-0.3125 0.14453,-0.49219c-0.01953,-0.17578 -0.10938,-0.33593 -0.25,-0.44922c-0.11719,-0.09375 -0.26172,-0.14453 -0.41407,-0.14453zm-0.0039,2.89063c-0.50391,0 -0.98438,-0.16797 -1.37891,-0.48438c-0.46484,-0.37109 -0.75781,-0.89843 -0.82422,-1.48437c-0.0664,-0.59375 0.10157,-1.17578 0.47266,-1.63672c0.36719,-0.46875 0.89453,-0.75781 1.48437,-0.82422c0.58985,-0.07031 1.16797,0.10156 1.63282,0.47266c0.46484,0.36718 0.7539,0.89843 0.82031,1.48437c0.07031,0.58985 -0.10156,1.17188 -0.46875,1.63672c-0.37109,0.46094 -0.89844,0.75781 -1.48828,0.82422c-0.08594,0.00781 -0.16797,0.01172 -0.25,0.01172" fill="#ffffff"/>
   <path id="svg_17" fill-rule="nonzero" d="m252.9375,188.28711c-32.28907,-0.16407 -45.84375,-7.875 -54.81641,-12.98047c-4.33984,-2.46875 -7.47266,-4.25391 -11.11328,-4.26953c-0.01172,0 -0.02344,0 -0.03516,0c-4.73437,0 -8.60156,3.84765 -8.62109,8.59375c-0.00781,1.80078 0.6875,3.49609 1.95312,4.77734c1.26953,1.28125 2.95703,1.99219 4.75782,1.99609c0.00781,0 0.01562,0 0.02343,0c2.87891,0 5.22266,-2.33593 5.23438,-5.21875c0.01172,-2.22265 -1.78906,-4.04687 -4.01563,-4.05468c-0.0039,0 -0.00781,0 -0.01172,0c-0.8164,0 -1.58593,0.3125 -2.16406,0.89062c-0.58203,0.57813 -0.90625,1.34766 -0.91015,2.17188c-0.00391,1.26953 1.02343,2.30859 2.29296,2.3164c0.00391,0 0.00782,0 0.00782,0c0.92578,0 1.68359,-0.7539 1.6875,-1.68359c0,-0.42578 0.35156,-0.77344 0.77343,-0.77344c0.00391,0 0.00391,0 0.00391,0c0.42969,0.00391 0.77344,0.35156 0.77344,0.78125c-0.00781,1.78516 -1.48047,3.22656 -3.25391,3.22656c-2.125,-0.01172 -3.84375,-1.75 -3.83594,-3.875c0.00782,-1.23828 0.49219,-2.39843 1.3711,-3.26562c0.86719,-0.86719 2.02344,-1.34375 3.2539,-1.34375c0.00782,0 0.01172,0 0.01954,0c3.08203,0.01562 5.57421,2.53515 5.55859,5.61719c-0.01563,3.73437 -3.05859,6.76562 -6.78516,6.76562c-0.01172,0 -0.01953,0 -0.03125,0c-2.21484,-0.01172 -4.28906,-0.88281 -5.85156,-2.45703c-1.55859,-1.57813 -2.41016,-3.66406 -2.40234,-5.87891c0.02734,-5.60156 4.58593,-10.13672 10.17187,-10.13672c0.01563,0 0.02735,0 0.04297,0c4.04688,0.01563 7.5,1.98047 11.87109,4.46875c8.83204,5.02344 22.17579,12.61719 54.05469,12.78125c0.42969,0 0.77344,0.35157 0.77344,0.77735c-0.00391,0.42969 -0.34766,0.77344 -0.77734,0.77344" fill="#ffffff"/>
   <path id="svg_18" fill-rule="nonzero" d="m185.61328,180.81836c0.0039,-0.65625 0.53906,-1.1836 1.1875,-1.17969c0.65625,0.0039 1.18359,0.53515 1.17968,1.1914c0,0.65625 -0.53515,1.1836 -1.1875,1.17579c-0.65234,0 -1.17968,-0.53125 -1.17968,-1.1875" fill="#ffffff"/>
   <path id="svg_19" fill-rule="nonzero" d="m186.79687,180.41601c-0.10937,0 -0.21094,0.03906 -0.28516,0.11719c-0.07812,0.07812 -0.12109,0.18359 -0.12109,0.28906c0,0.10938 0.03906,0.21094 0.11719,0.29297c0.07422,0.07422 0.17969,0.11719 0.28906,0.11719c0.22656,0 0.41016,-0.17969 0.41016,-0.40625c0,-0.22656 -0.1836,-0.41016 -0.40625,-0.41016l-0.00391,0zm0,2.36719c0,0 -0.00391,0 -0.00781,0c-0.52344,0 -1.01172,-0.20703 -1.38281,-0.57422c-0.36719,-0.37891 -0.57032,-0.86719 -0.56641,-1.39453l0.77344,0.00391l-0.77344,-0.00391c0.00391,-0.52344 0.20703,-1.01563 0.57812,-1.38281c0.3711,-0.36719 0.85938,-0.56641 1.37891,-0.56641c0.00391,0 0.00391,0 0.00781,0c1.08203,0.00391 1.95703,0.88672 1.95313,1.96875c-0.00391,1.07813 -0.88281,1.94922 -1.96094,1.94922" fill="#ffffff"/>
   <path id="svg_20" fill-rule="nonzero" d="m203.26171,178.03711c-0.13671,0 -0.27343,-0.03516 -0.39843,-0.10938c-2.09766,-1.25781 -3.57813,-3.29687 -4.17188,-5.74219c-0.58984,-2.4375 -0.22265,-4.9375 1.03906,-7.04297c2.11719,-3.55078 6.72657,-4.70703 10.26954,-2.58984c1.41015,0.84375 2.40625,2.18359 2.80859,3.77734c0.39844,1.59375 0.15625,3.25391 -0.6875,4.66016c-0.69531,1.16797 -1.80078,1.99219 -3.11328,2.32031c-1.31641,0.33203 -2.67969,0.12891 -3.83985,-0.5664c-1.99609,-1.19141 -2.64843,-3.78907 -1.45703,-5.78125c0.9961,-1.67188 3.16407,-2.21875 4.83594,-1.21875c1.41016,0.83984 1.87109,2.67578 1.02344,4.08593c-0.21875,0.36329 -0.69141,0.48438 -1.0625,0.26563c-0.36719,-0.21875 -0.48438,-0.69922 -0.26563,-1.0625c0.40235,-0.67578 0.17969,-1.55469 -0.49218,-1.96094c-0.9336,-0.55469 -2.14844,-0.25 -2.70704,0.6836c-0.7539,1.26171 -0.33984,2.90234 0.91797,3.65625c0.80469,0.48437 1.75391,0.62109 2.66797,0.39453c0.91016,-0.23047 1.67969,-0.80469 2.16016,-1.61328c0.63281,-1.05469 0.8125,-2.28907 0.51562,-3.48438c-0.30078,-1.1875 -1.04687,-2.19141 -2.10156,-2.82422c-2.80859,-1.67969 -6.46094,-0.76562 -8.14453,2.05469c-1.04688,1.75391 -1.35547,3.84375 -0.85938,5.87891c0.49219,2.03906 1.72266,3.73437 3.46094,4.77734c0.36719,0.21875 0.48828,0.69531 0.26953,1.0625c-0.14453,0.24609 -0.40234,0.37891 -0.66797,0.37891" fill="#ffffff"/>
   <path id="svg_21" fill-rule="nonzero" d="m207.08984,168.34179c-0.29688,0.50391 -0.13281,1.15235 0.36719,1.45313c0.5,0.30078 1.15234,0.13672 1.44922,-0.36328c0.30078,-0.50391 0.13671,-1.15625 -0.36329,-1.45703c-0.5,-0.29688 -1.15234,-0.13282 -1.45312,0.36718" fill="#ffffff"/>
   <path id="svg_22" fill-rule="nonzero" d="m207.75781,168.74023c-0.08203,0.13281 -0.03516,0.30859 0.09765,0.38672c0.08985,0.05469 0.16797,0.04297 0.21485,0.03125c0.03906,-0.00781 0.12109,-0.03906 0.17187,-0.125c0.05078,-0.08984 0.04297,-0.17188 0.03125,-0.21484c-0.01172,-0.04688 -0.04297,-0.125 -0.1289,-0.17579c-0.13282,-0.08203 -0.3086,-0.03515 -0.38672,0.09766zm0.23828,1.98047c-0.32813,0 -0.64844,-0.08984 -0.9375,-0.25781c-0.86719,-0.51953 -1.15234,-1.65235 -0.63281,-2.51953c0.51953,-0.8711 1.64843,-1.15235 2.51562,-0.63282c0.41797,0.25 0.71485,0.65235 0.83594,1.125c0.12109,0.48047 0.04687,0.96875 -0.20703,1.39453c-0.25,0.41797 -0.64844,0.71485 -1.125,0.83594c-0.14844,0.03516 -0.30078,0.05469 -0.44922,0.05469" fill="#ffffff"/>
   <path id="svg_23" fill-rule="nonzero" d="m252.89453,188.28711c-14.17969,0 -20.85157,-10.875 -25.72657,-18.82032c-2.11718,-3.44531 -3.94531,-6.42578 -5.73437,-7.27343c-1.16016,-0.55469 -2.46875,-0.625 -3.67969,-0.19141c-1.21484,0.42969 -2.1875,1.3125 -2.74219,2.47266c-0.42187,0.89453 -0.47265,1.89843 -0.14453,2.83203c0.33203,0.93359 1.00391,1.67968 1.89844,2.10547c0.67578,0.32031 1.44141,0.36328 2.14453,0.11328c0.70703,-0.25391 1.27344,-0.76563 1.59375,-1.44141c0.4961,-1.04297 0.05078,-2.29297 -0.98828,-2.78906c-0.75391,-0.35938 -1.66406,-0.03906 -2.01953,0.71875c-0.12109,0.2539 -0.13672,0.54297 -0.04297,0.8125c0.09766,0.26562 0.28906,0.47656 0.54297,0.59765c0.16406,0.08204 0.35156,0.08985 0.52734,0.02735c0.17578,-0.0586 0.31641,-0.1875 0.39453,-0.35547c0.1836,-0.38672 0.64454,-0.54688 1.03125,-0.36719c0.38672,0.1875 0.55079,0.64844 0.36719,1.03516c-0.2539,0.54297 -0.70703,0.94922 -1.27344,1.15234c-0.5625,0.19922 -1.17187,0.16797 -1.71484,-0.08984c-0.62891,-0.29688 -1.10156,-0.82422 -1.33594,-1.48438c-0.23437,-0.65234 -0.19531,-1.36718 0.10157,-1.99609c0.72656,-1.52734 2.55859,-2.17969 4.08593,-1.45313c1.8125,0.86329 2.58594,3.04297 1.72657,4.85547c-0.50391,1.05469 -1.37891,1.84766 -2.47657,2.23828c-1.09765,0.38672 -2.27734,0.32813 -3.32812,-0.16796c-1.26563,-0.60547 -2.22266,-1.66797 -2.69531,-2.99219c-0.46875,-1.32031 -0.39454,-2.7461 0.20703,-4.01953c0.73047,-1.53907 2.01562,-2.69922 3.61718,-3.26953c1.60547,-0.57032 3.33204,-0.48047 4.8711,0.25c2.19922,1.05078 4.04687,4.05859 6.38672,7.87109c4.67968,7.62891 11.09375,18.07812 24.40625,18.07812c0.01562,0 0.03515,0 0.04297,0c0.42968,0 0.77734,0.34375 0.77734,0.76954c0,0.44531 -0.38672,0.78515 -0.82031,0.78125" fill="#ffffff"/>
   <path id="svg_24" fill-rule="nonzero" d="m218.34375,166.82617c0.16796,-0.35156 0.58593,-0.50391 0.9414,-0.33594c0.35156,0.16797 0.5,0.58984 0.33203,0.94141c-0.16797,0.35156 -0.58984,0.5 -0.9414,0.33593c-0.34766,-0.16796 -0.5,-0.58984 -0.33203,-0.9414" fill="#ffffff"/>
   <path id="svg_25" fill-rule="nonzero" d="m218.34375,166.82617l0.00781,0l-0.00781,0zm0.64062,0.23437c-0.02734,0 -0.05469,0.01172 -0.06641,0.03516c-0.01562,0.03125 0,0.08203 0.03125,0.09375c0.03125,0.01562 0.07813,0 0.09766,-0.03125c0.01172,-0.03516 0,-0.07813 -0.03516,-0.09375c-0.00781,-0.00391 -0.01562,-0.00391 -0.02734,-0.00391zm-0.00391,1.55078c-0.21875,0 -0.43359,-0.04687 -0.63671,-0.14453c-0.73829,-0.34765 -1.05079,-1.23437 -0.69922,-1.97656c0.16797,-0.35937 0.46875,-0.625 0.83984,-0.75781c0.375,-0.13281 0.77344,-0.10938 1.13281,0.05469c0.35547,0.17187 0.625,0.47265 0.75782,0.84375c0.13281,0.375 0.11328,0.77734 -0.0586,1.13281c-0.16797,0.35937 -0.46875,0.6289 -0.83984,0.76172c-0.16016,0.05859 -0.32813,0.08593 -0.4961,0.08593" fill="#ffffff"/>
   <path id="svg_26" fill-rule="nonzero" d="m261.21875,202.99023c-1.98047,0 -3.87891,-1.12109 -4.78125,-3.02344c-1.03125,-2.18359 -0.10157,-4.80468 2.08203,-5.83984c0.88281,-0.41406 1.875,-0.46875 2.79687,-0.13672c0.91797,0.32813 1.65625,1 2.07422,1.87891c0.35156,0.74609 0.39453,1.58593 0.11719,2.35937c-0.27344,0.77735 -0.83594,1.39844 -1.58203,1.75c-0.38282,0.1836 -0.84766,0.01953 -1.03125,-0.36719c-0.1836,-0.38671 -0.01953,-0.85156 0.36718,-1.03515c0.3711,-0.17578 0.64844,-0.48438 0.78516,-0.8711c0.14063,-0.38281 0.12109,-0.79687 -0.05469,-1.16796c-0.24609,-0.50782 -0.66797,-0.89454 -1.19531,-1.08594c-0.53516,-0.1875 -1.10547,-0.16016 -1.61328,0.08203c-1.41016,0.66797 -2.01172,2.35937 -1.34375,3.76953c0.87891,1.85938 3.10937,2.65625 4.96875,1.77734c2.41406,-1.15234 3.45312,-4.05468 2.30469,-6.47656c-1.21094,-2.55469 -3.69141,-5.58203 -12.24219,-6.32031c-0.42578,-0.03516 -0.74219,-0.41406 -0.70703,-0.83984c0.03906,-0.42579 0.41406,-0.75391 0.83984,-0.70704c7.28516,0.63282 11.45313,2.85157 13.51172,7.20313c1.51172,3.19531 0.14844,7.02344 -3.04687,8.54297c-0.72657,0.34375 -1.4961,0.50781 -2.25,0.50781" fill="#ffffff"/>
   <path id="svg_27" fill-rule="nonzero" d="m260.53515,196.88867c-0.66406,0.29297 -0.96484,1.0664 -0.67578,1.73047c0.29297,0.66797 1.06641,0.96875 1.73047,0.67968c0.66406,-0.29296 0.96875,-1.0664 0.67578,-1.73046c-0.29297,-0.66797 -1.0625,-0.96875 -1.73047,-0.67969" fill="#ffffff"/>
   <path id="svg_28" fill-rule="nonzero" d="m261.0625,197.55273c-0.07422,0 -0.14454,0.01953 -0.21485,0.04688c-0.26953,0.12109 -0.39844,0.4375 -0.27734,0.71093c0.05859,0.12891 0.16406,0.23047 0.29687,0.28125c0.12891,0.05469 0.27735,0.05469 0.41016,-0.0039c0.26953,-0.1211 0.39453,-0.4375 0.27734,-0.71094c-0.05859,-0.12891 -0.16406,-0.23438 -0.29687,-0.28516c-0.0625,-0.02343 -0.12891,-0.03906 -0.19531,-0.03906zm0,2.63281c-0.25782,0 -0.51172,-0.04687 -0.76172,-0.14453c-0.51953,-0.20703 -0.92578,-0.59765 -1.15235,-1.11328c-0.46093,-1.05078 0.02344,-2.28906 1.07813,-2.75c0.51172,-0.22656 1.07812,-0.23437 1.59765,-0.03125c0.51954,0.20313 0.92579,0.59766 1.15235,1.10938c0.46094,1.05468 -0.01953,2.28906 -1.07813,2.7539c-0.26562,0.11719 -0.55078,0.17578 -0.83593,0.17578" fill="#ffffff"/>
   <path id="svg_29" fill-rule="nonzero" d="m280.01953,190.29492c-1.78125,0 -3.75391,-0.19531 -5.95313,-0.58203c-0.41797,-0.07813 -0.70312,-0.48047 -0.625,-0.90235c0.07031,-0.42187 0.47266,-0.70312 0.89453,-0.625c9.51563,1.67969 13.03125,-0.8125 15.03125,-3.17187c0.9336,-1.10547 1.38672,-2.51172 1.26953,-3.95313c-0.12109,-1.44531 -0.79296,-2.75781 -1.89843,-3.6914c-0.84766,-0.72266 -1.92578,-1.07422 -3.04297,-0.98047c-1.10938,0.09375 -2.1211,0.60937 -2.84375,1.46094c-0.55078,0.65234 -0.81641,1.47656 -0.7461,2.32812c0.07032,0.84766 0.46485,1.62109 1.11719,2.17188c0.48438,0.41406 1.10156,0.60546 1.74219,0.5625c0.64062,-0.05469 1.21484,-0.35157 1.62891,-0.83985c0.30468,-0.35937 0.45312,-0.8164 0.41406,-1.28515c-0.03906,-0.46875 -0.25781,-0.89454 -0.61719,-1.19922c-0.32422,-0.27735 -0.36719,-0.76953 -0.08984,-1.09766c0.27734,-0.32422 0.76953,-0.36719 1.09375,-0.08984c0.67578,0.57812 1.08593,1.3789 1.16015,2.26172c0.07422,0.88281 -0.20312,1.73828 -0.77734,2.41406c-0.67969,0.80469 -1.63672,1.29687 -2.68359,1.38281c-1.05079,0.08594 -2.07422,-0.24219 -2.87891,-0.92578c-0.96094,-0.82031 -1.55078,-1.96484 -1.65625,-3.23047c-0.10156,-1.26562 0.29297,-2.48828 1.10937,-3.45703c0.99219,-1.16797 2.375,-1.87891 3.90235,-2.00391c1.51953,-0.13281 3.0039,0.35157 4.17578,1.34375c1.41797,1.20313 2.28125,2.89063 2.43359,4.75c0.15235,1.85547 -0.42578,3.65625 -1.63281,5.07813c-2.44531,2.89062 -5.80078,4.28125 -10.52734,4.28125" fill="#ffffff"/>
   <path id="svg_30" fill-rule="nonzero" d="m285.09375,181.23242c-0.625,-0.4961 -0.72657,-1.40625 -0.23047,-2.03125c0.49609,-0.625 1.40625,-0.72656 2.02734,-0.23047c0.625,0.5 0.72656,1.41016 0.23047,2.03516c-0.49609,0.625 -1.40625,0.72656 -2.02734,0.22656" fill="#ffffff"/>
   <path id="svg_31" fill-rule="nonzero" d="m285.57421,180.62695c0.29297,0.23047 0.71094,0.18359 0.94141,-0.10547c0.23047,-0.28906 0.18359,-0.71484 -0.10547,-0.94141c-0.28906,-0.23046 -0.71094,-0.18359 -0.9414,0.10547c-0.23047,0.28907 -0.17969,0.71094 0.10546,0.94141zm0.41407,1.69531c-0.48047,0 -0.96875,-0.15625 -1.37891,-0.48047c-0.95703,-0.76172 -1.11719,-2.16797 -0.35547,-3.125c0.76563,-0.95703 2.16406,-1.11328 3.1211,-0.35156c0.95703,0.76172 1.11328,2.16406 0.35156,3.12109c-0.4375,0.55079 -1.08594,0.83594 -1.73828,0.83594" fill="#ffffff"/>
   <path id="svg_32" fill-rule="nonzero" d="m318.90625,205.5332c-0.01563,0 -0.02735,0 -0.04688,0c-4.04297,-0.01563 -7.49609,-1.98047 -11.87109,-4.46875c-8.82813,-5.02344 -22.17188,-12.61719 -54.05078,-12.77734c-0.42969,-0.00391 -0.77735,-0.35547 -0.77344,-0.78125c0,-0.42579 0.34765,-0.76954 0.77344,-0.76954l0.0039,0c32.28906,0.16016 45.84375,7.875 54.81641,12.97657c4.33594,2.47265 7.47265,4.2539 11.10937,4.26953c0.01563,0 0.02344,0 0.03907,0c4.73437,0 8.59765,-3.84375 8.62109,-8.58985c0.01562,-3.72265 -2.99609,-6.76171 -6.71094,-6.77734c-0.00781,0 -0.01562,0 -0.02344,0c-1.39062,0 -2.69921,0.53516 -3.6875,1.51563c-0.99218,0.98828 -1.54296,2.30078 -1.55078,3.70312c-0.00781,2.22656 1.79297,4.04688 4.01563,4.05859c0.00781,0 0.01172,0 0.01562,0c0.81641,0 1.58203,-0.32031 2.16407,-0.89062c0.58203,-0.58203 0.90625,-1.35156 0.90625,-2.17578c0.00781,-0.61328 -0.23047,-1.19531 -0.66407,-1.62891c-0.43359,-0.4414 -1.01172,-0.67969 -1.625,-0.68359c-0.0039,0 -0.00781,0 -0.00781,0c-0.45312,0 -0.87109,0.17187 -1.19141,0.48828c-0.3164,0.31641 -0.49609,0.74219 -0.49609,1.19141c-0.00391,0.42968 -0.35156,0.77343 -0.77734,0.77343c-0.42969,-0.0039 -0.77735,-0.35156 -0.77344,-0.78125c0,-0.86328 0.34375,-1.67578 0.95703,-2.28906c0.61328,-0.60547 1.41797,-0.93359 2.27734,-0.93359c0.00782,0 0.01172,0 0.01563,0c1.03125,0 1.99609,0.41015 2.71875,1.14062c0.72656,0.73047 1.125,1.70313 1.12109,2.73438c-0.00781,1.23047 -0.49218,2.39453 -1.37109,3.26562c-0.87109,0.86719 -2.02344,1.33985 -3.25391,1.33985c-0.0039,0 -0.01562,0 -0.01953,0c-3.07812,-0.01172 -5.57422,-2.53516 -5.5625,-5.61719c0.01172,-1.8125 0.72266,-3.51563 2.01172,-4.79688c1.28125,-1.26953 2.97656,-1.96484 4.77734,-1.96484c0.00782,0 0.01954,0 0.03125,0c4.57032,0.01562 8.27344,3.76172 8.25391,8.33203c-0.02734,5.60156 -4.58594,10.13672 -10.17187,10.13672" fill="#ffffff"/>
   <path id="svg_33" fill-rule="nonzero" d="m320.26562,194.20117c-0.00391,0.65234 -0.53906,1.18359 -1.19141,1.17969c-0.65234,-0.00391 -1.17968,-0.53516 -1.17968,-1.19141c0.0039,-0.65234 0.53906,-1.18359 1.1914,-1.17969c0.65235,0.00391 1.17969,0.53906 1.17969,1.19141" fill="#ffffff"/>
   <path id="svg_34" fill-rule="nonzero" d="m319.08203,193.78711c-0.22657,0 -0.41016,0.17968 -0.41016,0.40625c0,0.10937 0.04297,0.21484 0.11719,0.28906c0.07812,0.08203 0.19922,0.14844 0.29297,0.12109c0.10547,0 0.20703,-0.03906 0.28515,-0.11719c0.07813,-0.07421 0.1211,-0.17968 0.1211,-0.28906c0,-0.22265 -0.17969,-0.41015 -0.40625,-0.41015zm0,2.37109c-0.00391,0 -0.00782,0 -0.01172,0c-0.52344,-0.00391 -1.01563,-0.21094 -1.38281,-0.58203c-0.36719,-0.3711 -0.57032,-0.86719 -0.56641,-1.39063c0.00391,-1.07812 0.88281,-1.95312 1.96094,-1.95312c0,0 0.0039,0 0.00781,0c1.08203,0.00781 1.95312,0.89062 1.94922,1.97265l-0.77344,-0.0039l0.77344,0.0039c-0.00391,0.52344 -0.20703,1.01563 -0.58203,1.38282c-0.36719,0.37109 -0.85938,0.57031 -1.375,0.57031" fill="#ffffff"/>
   <path id="svg_35" fill-rule="nonzero" d="m299.70703,213.5332c-1.33594,0 -2.64844,-0.36328 -3.82813,-1.06641c-1.41015,-0.84375 -2.40625,-2.18359 -2.80469,-3.78125c-0.40234,-1.59375 -0.16015,-3.24609 0.6836,-4.66015c0.6914,-1.16016 1.80078,-1.98438 3.11719,-2.31641c1.3125,-0.33203 2.67578,-0.12891 3.83984,0.56641c1.99219,1.19531 2.64453,3.78515 1.45312,5.78515c-0.99609,1.66797 -3.16406,2.21485 -4.83593,1.21875c-1.40625,-0.84375 -1.86719,-2.67578 -1.02735,-4.08593c0.21875,-0.36719 0.69532,-0.48438 1.06641,-0.26954c0.36719,0.21875 0.48437,0.69922 0.26562,1.06641c-0.40234,0.67578 -0.18359,1.55078 0.49219,1.95313c0.9336,0.5664 2.14844,0.25781 2.70703,-0.67969c0.75391,-1.26172 0.33985,-2.90235 -0.91797,-3.65625c-0.80859,-0.48047 -1.75781,-0.6211 -2.66796,-0.39063c-0.91407,0.22657 -1.67969,0.79688 -2.16016,1.60938c-0.63281,1.05078 -0.8125,2.28906 -0.51563,3.48437c0.30079,1.19141 1.04297,2.19532 2.09766,2.82422c1.36328,0.81641 2.96094,1.05078 4.5,0.66406c1.53906,-0.39062 2.83203,-1.35156 3.64844,-2.71484c1.04687,-1.75781 1.35547,-3.84766 0.85937,-5.88281c-0.49218,-2.03906 -1.72265,-3.73438 -3.46093,-4.77344c-0.36719,-0.22266 -0.48829,-0.69922 -0.26954,-1.06641c0.21875,-0.36718 0.69922,-0.48828 1.0625,-0.26953c2.10157,1.25782 3.58204,3.30078 4.17579,5.7461c0.58984,2.43359 0.22265,4.93359 -1.03516,7.04297c-1.02734,1.71875 -2.66406,2.9375 -4.60156,3.42578c-0.61328,0.14843 -1.23047,0.22656 -1.84375,0.22656" fill="#ffffff"/>
   <path id="svg_36" fill-rule="nonzero" d="m298.78906,206.68164c0.29687,-0.50391 0.13281,-1.15625 -0.36719,-1.45703c-0.50391,-0.29688 -1.15234,-0.13672 -1.44922,0.36718c-0.30078,0.5 -0.13672,1.15235 0.36328,1.45313c0.50391,0.30078 1.15235,0.13672 1.45313,-0.36328" fill="#ffffff"/>
   <path id="svg_37" fill-rule="nonzero" d="m297.8789,205.84961c-0.09765,0 -0.1914,0.05078 -0.24219,0.14062c-0.05078,0.08594 -0.04296,0.17188 -0.03125,0.21484c0.01172,0.03907 0.04297,0.1211 0.125,0.17188c0.08985,0.05078 0.17579,0.04297 0.21485,0.03125c0.04687,-0.00781 0.12109,-0.04297 0.17578,-0.12891c0.07812,-0.13281 0.03516,-0.30859 -0.09766,-0.38672c-0.04687,-0.02734 -0.09375,-0.04296 -0.14453,-0.04296zm0.91016,0.83203l0.0039,0l-0.0039,0zm-0.91406,1.28906c-0.32813,0 -0.64844,-0.08984 -0.9375,-0.25781c-0.42188,-0.25391 -0.71875,-0.65235 -0.83594,-1.13282c-0.1211,-0.47265 -0.04688,-0.96484 0.20312,-1.38671c0.51953,-0.8711 1.64844,-1.15235 2.51563,-0.63282c0.86719,0.51953 1.15234,1.64453 0.6289,2.51563c-0.25,0.42187 -0.64843,0.71875 -1.12109,0.83594c-0.15234,0.03906 -0.30078,0.05859 -0.45312,0.05859" fill="#ffffff"/>
   <path id="svg_38" fill-rule="nonzero" d="m286.50781,214.85351c-0.9336,0 -1.86328,-0.20703 -2.73047,-0.62109c-2.20313,-1.05078 -4.04688,-4.0586 -6.38672,-7.86719c-4.68359,-7.62891 -11.09375,-18.07812 -24.40625,-18.07812c-0.01562,0 -0.04297,0 -0.04687,0c-0.42579,0 -0.77344,-0.34766 -0.77344,-0.77735c0,-0.4414 0.3789,-0.78515 0.82422,-0.77344c14.17968,0 20.84765,10.8711 25.72265,18.8125c2.11719,3.45313 3.94532,6.42969 5.73047,7.28125c1.16406,0.55079 2.47266,0.6211 3.6836,0.1875c1.21484,-0.42968 2.1875,-1.30859 2.73828,-2.47265c0.8789,-1.84375 0.08984,-4.0625 -1.75,-4.9375c-1.39844,-0.66797 -3.07422,-0.07031 -3.74219,1.32812c-0.49219,1.04297 -0.04688,2.29297 0.99219,2.78907c0.36328,0.17578 0.78125,0.19531 1.16015,0.0625c0.37891,-0.14063 0.6875,-0.41407 0.85938,-0.78516c0.12109,-0.25391 0.13672,-0.53906 0.04297,-0.80469c-0.09766,-0.26562 -0.28516,-0.48047 -0.54688,-0.60156c-0.16406,-0.08203 -0.35156,-0.08984 -0.52734,-0.02734c-0.17188,0.0625 -0.3125,0.1875 -0.39063,0.35546c-0.18359,0.38672 -0.64453,0.55079 -1.03515,0.36719c-0.38282,-0.18359 -0.54688,-0.64844 -0.36719,-1.03515c0.25781,-0.54297 0.71094,-0.95313 1.27734,-1.15235c0.5625,-0.19922 1.17188,-0.16797 1.71094,0.08985c0.62891,0.29687 1.10547,0.82421 1.33984,1.48437c0.23438,0.65625 0.19532,1.36328 -0.10156,1.99219c-0.35156,0.74219 -0.96875,1.30469 -1.74219,1.57812c-0.77343,0.27344 -1.60937,0.23047 -2.34375,-0.12109c-1.8164,-0.86328 -2.58984,-3.04297 -1.72656,-4.85938c1.03125,-2.16796 3.63672,-3.09765 5.80469,-2.0625c2.61719,1.2461 3.73047,4.39063 2.48437,7.00782c-0.72656,1.53515 -2.01562,2.69922 -3.61718,3.26953c-0.69532,0.24609 -1.41797,0.37109 -2.13672,0.37109" fill="#ffffff"/>
   <path id="svg_39" fill-rule="nonzero" d="m287.53515,208.19726c-0.16797,0.35156 -0.58984,0.5 -0.9414,0.33203c-0.35157,-0.16797 -0.5,-0.58984 -0.33204,-0.9414c0.16407,-0.35157 0.58985,-0.5 0.9375,-0.33203c0.35157,0.16796 0.50391,0.58593 0.33594,0.9414" fill="#ffffff"/>
   <path id="svg_40" fill-rule="nonzero" d="m286.89843,207.82226c-0.02734,0 -0.05078,0.01563 -0.0625,0.03906l0.125,0.0625c0.01172,-0.03125 -0.0039,-0.08203 -0.03125,-0.09375c-0.01172,-0.00781 -0.02343,-0.00781 -0.03125,-0.00781zm-0.0664,0.03906c-0.01563,0.03516 0,0.07813 0.03906,0.09375c0.03125,0.01954 0.07422,0.00391 0.08984,-0.03125l-0.1289,-0.0625zm0.70312,0.33594l0.00781,0l-0.00781,0zm-0.63672,1.17578c-0.21484,0 -0.42968,-0.04687 -0.63672,-0.14453c-0.35937,-0.16797 -0.625,-0.46875 -0.76171,-0.83984c-0.12891,-0.375 -0.10938,-0.77735 0.05859,-1.13281c0.35547,-0.73829 1.23437,-1.05079 1.97656,-0.69922c0.73438,0.34765 1.05078,1.23437 0.69922,1.97265c-0.25391,0.53125 -0.78516,0.84375 -1.33594,0.84375" fill="#ffffff"/>
   <path id="svg_41" fill-rule="nonzero" d="m178.35156,246.31836l149.17578,0l0,-100.53125c-80.36719,-0.19141 -140.22656,-30.07422 -149.17578,-34.79297l0,135.32422zm150.72656,1.55078l-152.27734,0l0,-139.50391l1.15625,0.65234c0.625,0.35157 63.54687,35.21875 150.34375,35.21875l0.77734,0l0,103.63282" fill="#ffffff"/>
   <path id="svg_42" fill-rule="nonzero" d="m328.30078,169.08007c-87.22266,0 -150.47657,-35.0664 -151.10547,-35.42187l0.76172,-1.35547c0.625,0.35547 63.54687,35.22266 150.34375,35.22266l0,1.55468" fill="#ffffff"/>
   <path id="svg_43" fill-rule="nonzero" d="m321.89843,247.0957l-1.55078,0l0,-102.16406l1.55078,0l0,102.16406" fill="#ffffff"/>
   <path id="svg_44" fill-rule="nonzero" d="m314.72265,247.0957l-1.55078,0l0,-102.39844l1.55078,0l0,102.39844" fill="#ffffff"/>
   <path id="svg_45" fill-rule="nonzero" d="m307.54296,247.0957l-1.54687,0l0,-102.78516l1.54687,0l0,102.78516" fill="#ffffff"/>
   <path id="svg_46" fill-rule="nonzero" d="m300.36718,247.0957l-1.55078,0l0,-103.32813l1.55078,0l0,103.32813" fill="#ffffff"/>
   <path id="svg_47" fill-rule="nonzero" d="m293.1914,247.0957l-1.55078,0l0,-104.01953l1.55078,0l0,104.01953" fill="#ffffff"/>
   <path id="svg_48" fill-rule="nonzero" d="m286.01171,247.0957l-1.55078,0l0,-104.86719l1.55078,0l0,104.86719" fill="#ffffff"/>
   <path id="svg_49" fill-rule="nonzero" d="m278.83593,247.0957l-1.55078,0l0,-105.87109l1.55078,0l0,105.87109" fill="#ffffff"/>
   <path id="svg_50" fill-rule="nonzero" d="m271.65625,247.0957l-1.55079,0l0,-107.02734l1.55079,0l0,107.02734" fill="#ffffff"/>
   <path id="svg_51" fill-rule="nonzero" d="m264.48046,247.0957l-1.55078,0l0,-108.33203l1.55078,0l0,108.33203" fill="#ffffff"/>
   <path id="svg_52" fill-rule="nonzero" d="m257.30468,247.0957l-1.55468,0l0,-109.79688l1.55468,0l0,109.79688" fill="#ffffff"/>
   <path id="svg_53" fill-rule="nonzero" d="m250.125,247.0957l-1.54688,0l0,-111.41797l1.54688,0l0,111.41797" fill="#ffffff"/>
   <path id="svg_54" fill-rule="nonzero" d="m242.94921,247.0957l-1.55078,0l0,-113.19531l1.55078,0l0,113.19531" fill="#ffffff"/>
   <path id="svg_55" fill-rule="nonzero" d="m235.76953,247.0957l-1.55078,0l0,-115.13672l1.55078,0l0,115.13672" fill="#ffffff"/>
   <path id="svg_56" fill-rule="nonzero" d="m228.59375,247.0957l-1.55079,0l0,-117.23438l1.55079,0l0,117.23438" fill="#ffffff"/>
   <path id="svg_57" fill-rule="nonzero" d="m221.41796,247.0957l-1.55078,0l0,-119.50781l1.55078,0l0,119.50781" fill="#ffffff"/>
   <path id="svg_58" fill-rule="nonzero" d="m214.23828,247.0957l-1.55078,0l0,-121.95313l1.55078,0l0,121.95313" fill="#ffffff"/>
   <path id="svg_59" fill-rule="nonzero" d="m207.0625,247.0957l-1.55079,0l0,-124.58594l1.55079,0l0,124.58594" fill="#ffffff"/>
   <path id="svg_60" fill-rule="nonzero" d="m199.88671,247.0957l-1.55468,0l0,-127.41406l1.55468,0l0,127.41406" fill="#ffffff"/>
   <path id="svg_61" fill-rule="nonzero" d="m192.70703,247.0957l-1.55078,0l0,-130.45703l1.55078,0l0,130.45703" fill="#ffffff"/>
   <path id="svg_62" fill-rule="nonzero" d="m185.53125,247.0957l-1.55079,0l0,-133.75391l1.55079,0l0,133.75391" fill="#ffffff"/>
   <path id="svg_63" fill-rule="nonzero" d="m328.30078,224.58398l-150.72657,0l0,-1.55469l150.72657,0l0,1.55469" fill="#ffffff"/>
   <path id="svg_64" fill-rule="nonzero" d="m193.29296,111.89257c0,-4.96093 -1.36328,-8.51562 -1.36328,-8.51562c0,0 -1.36328,3.55469 -1.36328,8.51562c0,0 -0.95312,0.12891 -0.95312,1.60938l1.16015,0.45312l0.38672,2.6836l1.53906,0l0.39063,-2.6836l1.16016,-0.45312c0,-1.48047 -0.95704,-1.60938 -0.95704,-1.60938" fill="#ffffff"/>
   <path id="svg_65" fill-rule="nonzero" d="m190.52343,112.77148c0.33985,-0.20703 0.67969,-0.25 1.02344,-0.25781c0.33984,0.0039 0.67969,0.05078 1.01953,0.25781c-0.33984,0.20703 -0.67969,0.25 -1.01953,0.26172c-0.34375,-0.01172 -0.68359,-0.05469 -1.02344,-0.26172" fill="#ffffff"/>
   <g id="svg_66" clip-path="url(#id1)">
    <path id="svg_67" fill-rule="nonzero" d="m178.94531,104.82226c0,-4.95703 -1.36719,-8.51562 -1.36719,-8.51562c0,0 -1.36328,3.55859 -1.36328,8.51562c0,0 -0.95313,0.12891 -0.95313,1.60547l1.16016,0.45703l0.38672,2.6875l1.53906,0l0.39063,-2.6875l1.16015,-0.45703c0,-1.47656 -0.95312,-1.60547 -0.95312,-1.60547" fill="#ffffff"/>
   </g>
   <path id="svg_68" fill-rule="nonzero" d="m176.17187,105.70117c0.33984,-0.20313 0.67969,-0.25 1.01953,-0.25781c0.33985,0.00781 0.6836,0.05468 1.02344,0.25781c-0.33984,0.20703 -0.68359,0.2539 -1.02344,0.26172c-0.33984,-0.00782 -0.67969,-0.0586 -1.01953,-0.26172" fill="#ffffff"/>
   <path id="svg_69" fill-rule="nonzero" d="m207.64843,117.65039c0,-4.96094 -1.36328,-8.51953 -1.36328,-8.51953c0,0 -1.36328,3.55859 -1.36328,8.51953c0,0 -0.95312,0.1289 -0.95312,1.60937l1.15625,0.45313l0.39062,2.68359l1.54297,0l0.38672,-2.68359l1.16015,-0.45313c0,-1.48047 -0.95703,-1.60937 -0.95703,-1.60937" fill="#ffffff"/>
   <path id="svg_70" fill-rule="nonzero" d="m204.8789,118.52929c0.33985,-0.20703 0.67969,-0.2539 1.01953,-0.25781c0.33985,0.00391 0.67969,0.05078 1.02735,0.25781c-0.34766,0.20703 -0.6875,0.25391 -1.02735,0.25782c-0.33984,-0.00782 -0.67968,-0.05079 -1.01953,-0.25782" fill="#ffffff"/>
   <path id="svg_71" fill-rule="nonzero" d="m222.0039,122.83789c0,-4.96094 -1.36328,-8.51563 -1.36328,-8.51563c0,0 -1.36328,3.55469 -1.36328,8.51563c0,0 -0.95313,0.13281 -0.95313,1.60937l1.15625,0.45703l0.39063,2.6836l1.54297,0l0.38672,-2.6836l1.16015,-0.45703c0,-1.47656 -0.95703,-1.60937 -0.95703,-1.60937" fill="#ffffff"/>
   <path id="svg_72" fill-rule="nonzero" d="m219.23046,123.7207c0.34375,-0.20703 0.6836,-0.25391 1.02344,-0.26172c0.33985,0.00781 0.6836,0.05469 1.02344,0.26172c-0.33984,0.20312 -0.68359,0.25391 -1.02344,0.25781c-0.33984,-0.00781 -0.67969,-0.05469 -1.02344,-0.25781" fill="#ffffff"/>
   <path id="svg_73" fill-rule="nonzero" d="m236.35937,127.21289c0,-4.96094 -1.36328,-8.51563 -1.36328,-8.51563c0,0 -1.36328,3.55469 -1.36328,8.51563c0,0 -0.95313,0.1289 -0.95313,1.60937l1.15625,0.45703l0.38672,2.67969l1.54297,0l0.38672,-2.67969l1.16016,-0.45703c0,-1.48047 -0.95313,-1.60937 -0.95313,-1.60937" fill="#ffffff"/>
   <path id="svg_74" fill-rule="nonzero" d="m233.58593,128.0957c0.34375,-0.20703 0.6836,-0.25391 1.02344,-0.26172c0.33984,0.00781 0.68359,0.05469 1.02344,0.26172c-0.33985,0.20312 -0.6836,0.25 -1.02344,0.25781c-0.33984,-0.00781 -0.67969,-0.05469 -1.02344,-0.25781" fill="#ffffff"/>
   <path id="svg_75" fill-rule="nonzero" d="m250.71484,130.91601c0,-4.96094 -1.36328,-8.51953 -1.36328,-8.51953c0,0 -1.36328,3.55859 -1.36328,8.51953c0,0 -0.95703,0.12891 -0.95703,1.60547l1.16015,0.45313l0.38672,2.6875l1.54297,0l0.39062,-2.6875l1.15625,-0.45313c0,-1.47656 -0.95312,-1.60547 -0.95312,-1.60547" fill="#ffffff"/>
   <path id="svg_76" fill-rule="nonzero" d="m247.9414,131.79492c0.34375,-0.20703 0.6836,-0.25391 1.02344,-0.26172c0.33984,0.00781 0.68359,0.05469 1.02344,0.26172c-0.33985,0.20312 -0.6836,0.25 -1.02344,0.25781c-0.33984,-0.00781 -0.67969,-0.05469 -1.02344,-0.25781" fill="#ffffff"/>
   <path id="svg_77" fill-rule="nonzero" d="m265.07031,134.01367c0,-4.96094 -1.36328,-8.51563 -1.36328,-8.51563c0,0 -1.36328,3.55469 -1.36328,8.51563c0,0 -0.95704,0.1289 -0.95704,1.60937l1.16016,0.45313l0.38672,2.6875l1.54297,0l0.38672,-2.6875l1.16015,-0.45313c0,-1.48047 -0.95312,-1.60937 -0.95312,-1.60937" fill="#ffffff"/>
   <path id="svg_78" fill-rule="nonzero" d="m262.29687,134.89257c0.33984,-0.20312 0.67969,-0.25 1.01953,-0.25781c0.34375,0.00781 0.6836,0.05469 1.02344,0.25781c-0.33984,0.20704 -0.67969,0.25391 -1.02344,0.26172c-0.33984,-0.00781 -0.67969,-0.05859 -1.01953,-0.26172" fill="#ffffff"/>
   <path id="svg_79" fill-rule="nonzero" d="m279.42578,136.48242c0,-4.96094 -1.36328,-8.52344 -1.36328,-8.52344c0,0 -1.36719,3.5625 -1.36719,8.52344c0,0 -0.95703,0.125 -0.95703,1.60547l1.16406,0.45703l0.38672,2.67969l1.53906,0l0.39063,-2.67969l1.16015,-0.45703c0,-1.48047 -0.95312,-1.60547 -0.95312,-1.60547" fill="#ffffff"/>
   <path id="svg_80" fill-rule="nonzero" d="m276.65234,137.36132c0.33984,-0.20703 0.67969,-0.2539 1.01953,-0.26171c0.34375,0.00781 0.68359,0.05468 1.02344,0.26171c-0.33985,0.20704 -0.67969,0.25 -1.02344,0.25782c-0.33984,-0.00782 -0.67969,-0.05469 -1.01953,-0.25782" fill="#ffffff"/>
   <path id="svg_81" fill-rule="nonzero" d="m293.77734,138.33007c0,-4.96093 -1.36328,-8.51953 -1.36328,-8.51953c0,0 -1.36328,3.5586 -1.36328,8.51953c0,0 -0.95313,0.125 -0.95313,1.60547l1.16016,0.45703l0.38672,2.6836l1.53906,0l0.39062,-2.6836l1.15625,-0.45703c0,-1.48047 -0.95312,-1.60547 -0.95312,-1.60547" fill="#ffffff"/>
   <path id="svg_82" fill-rule="nonzero" d="m291.00781,139.20898c0.33984,-0.20312 0.67969,-0.25391 1.01953,-0.26172c0.34375,0.00781 0.68359,0.05469 1.02344,0.26172c-0.33985,0.20703 -0.67969,0.25 -1.02344,0.25781c-0.33984,-0.00781 -0.67969,-0.05468 -1.01953,-0.25781" fill="#ffffff"/>
   <path id="svg_83" fill-rule="nonzero" d="m308.13281,139.56054c0,-4.95703 -1.36328,-8.51562 -1.36328,-8.51562c0,0 -1.36328,3.55859 -1.36328,8.51562c0,0 -0.95704,0.12891 -0.95704,1.60938l1.16407,0.45312l0.38672,2.6875l1.53906,0l0.38672,-2.6875l1.16406,-0.45312c0,-1.48047 -0.95703,-1.60938 -0.95703,-1.60938" fill="#ffffff"/>
   <path id="svg_84" fill-rule="nonzero" d="m305.35937,140.44336c0.33984,-0.20313 0.68359,-0.25391 1.02344,-0.26172c0.34375,0.00781 0.68359,0.05468 1.02344,0.26172c-0.33985,0.20312 -0.67969,0.25 -1.02344,0.26171c-0.33985,-0.01171 -0.6836,-0.05859 -1.02344,-0.26171" fill="#ffffff"/>
   <path id="svg_85" fill-rule="nonzero" d="m322.48828,140.18554c0,-4.96093 -1.36328,-8.51953 -1.36328,-8.51953c0,0 -1.36329,3.5586 -1.36329,8.51953c0,0 -0.95312,0.12891 -0.95312,1.60938l1.15625,0.45312l0.39062,2.6836l1.54297,0l0.38282,-2.6836l1.16015,-0.45312c0,-1.48047 -0.95312,-1.60938 -0.95312,-1.60938" fill="#ffffff"/>
   <path id="svg_86" fill-rule="nonzero" d="m319.71875,141.06445c0.33984,-0.20313 0.67578,-0.25 1.01953,-0.25781c0.33984,0.0039 0.67968,0.05078 1.01953,0.25781c-0.33985,0.20703 -0.67969,0.25 -1.01953,0.25781c-0.34375,-0.00781 -0.67969,-0.05078 -1.01953,-0.25781" fill="#ffffff"/>
   <path id="svg_87" fill-rule="nonzero" d="m324.71093,153.80273c-1.54687,0 -2.8125,1.26172 -2.8125,2.81641c0,1.55078 1.26563,2.8164 2.8125,2.8164c1.55469,0 2.81641,-1.26562 2.81641,-2.8164c0,-1.55469 -1.26172,-2.81641 -2.81641,-2.81641zm0,7.18359c-2.40625,0 -4.36328,-1.96093 -4.36328,-4.36718c0,-2.41016 1.95703,-4.3711 4.36328,-4.3711c2.41016,0 4.36719,1.96094 4.36719,4.3711c0,2.40625 -1.95703,4.36718 -4.36719,4.36718" fill="#ffffff"/>
   <path id="svg_88" fill-rule="nonzero" d="m324.71093,232.63086c-1.54687,0 -2.8125,1.26562 -2.8125,2.82031c0,1.55078 1.26563,2.8164 2.8125,2.8164c1.55469,0 2.81641,-1.26562 2.81641,-2.8164c0,-1.55469 -1.26172,-2.82031 -2.81641,-2.82031zm0,7.1875c-2.40625,0 -4.36328,-1.96094 -4.36328,-4.36719c0,-2.41016 1.95703,-4.3711 4.36328,-4.3711c2.41016,0 4.36719,1.96094 4.36719,4.3711c0,2.40625 -1.95703,4.36719 -4.36719,4.36719" fill="#ffffff"/>
   <path id="svg_89" fill-rule="nonzero" d="m310.35937,232.63086c-1.55469,0 -2.81641,1.26562 -2.81641,2.82031c0,1.55078 1.26172,2.8164 2.81641,2.8164c1.55078,0 2.8125,-1.26562 2.8125,-2.8164c0,-1.55469 -1.26172,-2.82031 -2.8125,-2.82031zm0,7.1875c-2.40625,0 -4.36328,-1.96094 -4.36328,-4.36719c0,-2.41016 1.95703,-4.3711 4.36328,-4.3711c2.40625,0 4.36328,1.96094 4.36328,4.3711c0,2.40625 -1.95703,4.36719 -4.36328,4.36719" fill="#ffffff"/>
   <path id="svg_90" fill-rule="nonzero" d="m296.0039,232.63086c-1.55469,0 -2.8125,1.26562 -2.8125,2.82031c0,1.55078 1.25781,2.8164 2.8125,2.8164c1.55078,0 2.8125,-1.26562 2.8125,-2.8164c0,-1.55469 -1.26172,-2.82031 -2.8125,-2.82031zm0,7.1875c-2.40625,0 -4.36328,-1.96094 -4.36328,-4.36719c0,-2.41016 1.95703,-4.3711 4.36328,-4.3711c2.40625,0 4.36328,1.96094 4.36328,4.3711c0,2.40625 -1.95703,4.36719 -4.36328,4.36719" fill="#ffffff"/>
   <path id="svg_91" fill-rule="nonzero" d="m281.64843,232.63086c-1.55468,0 -2.8125,1.26562 -2.8125,2.82031c0,1.55078 1.25782,2.8164 2.8125,2.8164c1.55078,0 2.8125,-1.26562 2.8125,-2.8164c0,-1.55469 -1.26172,-2.82031 -2.8125,-2.82031zm0,7.1875c-2.40625,0 -4.36328,-1.96094 -4.36328,-4.36719c0,-2.41016 1.95703,-4.3711 4.36328,-4.3711c2.40625,0 4.36328,1.96094 4.36328,4.3711c0,2.40625 -1.95703,4.36719 -4.36328,4.36719" fill="#ffffff"/>
   <path id="svg_92" fill-rule="nonzero" d="m267.29296,232.63086c-1.55078,0 -2.8125,1.26562 -2.8125,2.82031c0,1.55078 1.26172,2.8164 2.8125,2.8164c1.55079,0 2.8125,-1.26562 2.8125,-2.8164c0,-1.55469 -1.26171,-2.82031 -2.8125,-2.82031zm0,7.1875c-2.40625,0 -4.36328,-1.96094 -4.36328,-4.36719c0,-2.41016 1.95703,-4.3711 4.36328,-4.3711c2.40625,0 4.36329,1.96094 4.36329,4.3711c0,2.40625 -1.95704,4.36719 -4.36329,4.36719" fill="#ffffff"/>
   <path id="svg_93" fill-rule="nonzero" d="m252.9375,232.63086c-1.55079,0 -2.8125,1.26562 -2.8125,2.82031c0,1.55078 1.26171,2.8164 2.8125,2.8164c1.55078,0 2.8125,-1.26562 2.8125,-2.8164c0,-1.55469 -1.26172,-2.82031 -2.8125,-2.82031zm0,7.1875c-2.40625,0 -4.36329,-1.96094 -4.36329,-4.36719c0,-2.41016 1.95704,-4.3711 4.36329,-4.3711c2.40625,0 4.36328,1.96094 4.36328,4.3711c0,2.40625 -1.95703,4.36719 -4.36328,4.36719" fill="#ffffff"/>
   <path id="svg_94" fill-rule="nonzero" d="m238.58593,232.63086c-1.55468,0 -2.8164,1.26562 -2.8164,2.82031c0,1.55078 1.26172,2.8164 2.8164,2.8164c1.54688,0 2.8125,-1.26562 2.8125,-2.8164c0,-1.55469 -1.26562,-2.82031 -2.8125,-2.82031zm0,7.1875c-2.40625,0 -4.36718,-1.96094 -4.36718,-4.36719c0,-2.41016 1.96093,-4.3711 4.36718,-4.3711c2.40235,0 4.36328,1.96094 4.36328,4.3711c0,2.40625 -1.96093,4.36719 -4.36328,4.36719" fill="#ffffff"/>
   <path id="svg_95" fill-rule="nonzero" d="m224.23046,232.63086c-1.55078,0 -2.8125,1.26562 -2.8125,2.82031c0,1.55078 1.26172,2.8164 2.8125,2.8164c1.55079,0 2.8125,-1.26562 2.8125,-2.8164c0,-1.55469 -1.26171,-2.82031 -2.8125,-2.82031zm0,7.1875c-2.40625,0 -4.36328,-1.96094 -4.36328,-4.36719c0,-2.41016 1.95703,-4.3711 4.36328,-4.3711c2.40625,0 4.35938,1.96094 4.35938,4.3711c0,2.40625 -1.95313,4.36719 -4.35938,4.36719" fill="#ffffff"/>
   <path id="svg_96" fill-rule="nonzero" d="m209.875,232.63086c-1.55079,0 -2.8125,1.26562 -2.8125,2.82031c0,1.55078 1.26171,2.8164 2.8125,2.8164c1.54687,0 2.8125,-1.26562 2.8125,-2.8164c0,-1.55469 -1.26563,-2.82031 -2.8125,-2.82031zm0,7.1875c-2.41016,0 -4.36719,-1.96094 -4.36719,-4.36719c0,-2.41016 1.95703,-4.3711 4.36719,-4.3711c2.40625,0 4.36328,1.96094 4.36328,4.3711c0,2.40625 -1.95703,4.36719 -4.36328,4.36719" fill="#ffffff"/>
   <path id="svg_97" fill-rule="nonzero" d="m195.51953,232.63086c-1.55469,0 -2.8125,1.26562 -2.8125,2.82031c0,1.55078 1.25781,2.8164 2.8125,2.8164c1.55078,0 2.8125,-1.26562 2.8125,-2.8164c0,-1.55469 -1.26172,-2.82031 -2.8125,-2.82031zm0,7.1875c-2.40625,0 -4.36328,-1.96094 -4.36328,-4.36719c0,-2.41016 1.95703,-4.3711 4.36328,-4.3711c2.40625,0 4.36328,1.96094 4.36328,4.3711c0,2.40625 -1.95703,4.36719 -4.36328,4.36719" fill="#ffffff"/>
   <path id="svg_98" fill-rule="nonzero" d="m181.16406,232.63086c-1.55078,0 -2.81641,1.26562 -2.81641,2.82031c0,1.55078 1.26563,2.8164 2.81641,2.8164c1.55078,0 2.8125,-1.26562 2.8125,-2.8164c0,-1.55469 -1.26172,-2.82031 -2.8125,-2.82031zm0,7.1875c-2.40625,0 -4.36328,-1.96094 -4.36328,-4.36719c0,-2.41016 1.95703,-4.3711 4.36328,-4.3711c2.40625,0 4.36328,1.96094 4.36328,4.3711c0,2.40625 -1.95703,4.36719 -4.36328,4.36719" fill="#ffffff"/>
   <path id="svg_99" fill-rule="nonzero" d="m310.35937,153.80273c-1.55469,0 -2.81641,1.26172 -2.81641,2.81641c0,1.55078 1.26172,2.8164 2.81641,2.8164c1.55078,0 2.8125,-1.26562 2.8125,-2.8164c0,-1.55469 -1.26172,-2.81641 -2.8125,-2.81641zm0,7.18359c-2.40625,0 -4.36328,-1.96093 -4.36328,-4.36718c0,-2.41016 1.95703,-4.3711 4.36328,-4.3711c2.40625,0 4.36328,1.96094 4.36328,4.3711c0,2.40625 -1.95703,4.36718 -4.36328,4.36718" fill="#ffffff"/>
   <path id="svg_100" fill-rule="nonzero" d="m296.0039,152.74414c-1.55469,0 -2.8125,1.26172 -2.8125,2.8164c0,1.55078 1.25781,2.81641 2.8125,2.81641c1.55078,0 2.8125,-1.26563 2.8125,-2.81641c0,-1.55468 -1.26172,-2.8164 -2.8125,-2.8164zm0,7.18359c-2.40625,0 -4.36328,-1.95703 -4.36328,-4.36719c0,-2.41015 1.95703,-4.37109 4.36328,-4.37109c2.40625,0 4.36328,1.96094 4.36328,4.37109c0,2.41016 -1.95703,4.36719 -4.36328,4.36719" fill="#ffffff"/>
   <path id="svg_101" fill-rule="nonzero" d="m281.64843,151.17382c-1.55468,0 -2.8125,1.26172 -2.8125,2.8125c0,1.55469 1.25782,2.82032 2.8125,2.82032c1.55078,0 2.8125,-1.26563 2.8125,-2.82032c0,-1.55078 -1.26172,-2.8125 -2.8125,-2.8125zm0,7.1836c-2.40625,0 -4.36328,-1.95703 -4.36328,-4.3711c0,-2.40625 1.95703,-4.36328 4.36328,-4.36328c2.40625,0 4.36328,1.95703 4.36328,4.36328c0,2.41407 -1.95703,4.3711 -4.36328,4.3711" fill="#ffffff"/>
   <path id="svg_102" fill-rule="nonzero" d="m267.29296,148.65429c-1.54687,0 -2.8125,1.26172 -2.8125,2.81641c0,1.55469 1.26563,2.81641 2.8125,2.81641c1.55079,0 2.8125,-1.26172 2.8125,-2.81641c0,-1.55469 -1.26171,-2.81641 -2.8125,-2.81641zm0,7.1836c-2.40625,0 -4.36328,-1.96094 -4.36328,-4.36719c0,-2.41016 1.95703,-4.37109 4.36328,-4.37109c2.40625,0 4.36329,1.96093 4.36329,4.37109c0,2.40625 -1.95704,4.36719 -4.36329,4.36719" fill="#ffffff"/>
   <path id="svg_103" fill-rule="nonzero" d="m252.9375,145.73632c-1.55079,0 -2.8125,1.26172 -2.8125,2.82032c0,1.55078 1.26171,2.8125 2.8125,2.8125c1.55078,0 2.8125,-1.26172 2.8125,-2.8125c0,-1.5586 -1.26172,-2.82032 -2.8125,-2.82032zm0,7.1875c-2.40625,0 -4.35938,-1.96093 -4.35938,-4.36718c0,-2.41016 1.95313,-4.3711 4.35938,-4.3711c2.40625,0 4.36718,1.96094 4.36718,4.3711c0,2.40625 -1.96093,4.36718 -4.36718,4.36718" fill="#ffffff"/>
   <path id="svg_104" fill-rule="nonzero" d="m238.58593,141.86914c-1.55078,0 -2.8164,1.26562 -2.8164,2.82031c0,1.55078 1.26562,2.81641 2.8164,2.81641c1.55078,0 2.8125,-1.26563 2.8125,-2.81641c0,-1.55469 -1.26172,-2.82031 -2.8125,-2.82031zm0,7.1875c-2.40625,0 -4.36718,-1.95703 -4.36718,-4.36719c0,-2.41016 1.96093,-4.37109 4.36718,-4.37109c2.40625,0 4.36328,1.96093 4.36328,4.37109c0,2.41016 -1.95703,4.36719 -4.36328,4.36719" fill="#ffffff"/>
   <path id="svg_105" fill-rule="nonzero" d="m224.23046,138.07226c-1.55078,0 -2.8125,1.26563 -2.8125,2.81641c0,1.55469 1.26172,2.8164 2.8125,2.8164c1.55079,0 2.81641,-1.26171 2.81641,-2.8164c0,-1.55078 -1.26562,-2.81641 -2.81641,-2.81641zm0,7.1875c-2.40625,0 -4.36328,-1.96094 -4.36328,-4.37109c0,-2.40625 1.95703,-4.36719 4.36328,-4.36719c2.40625,0 4.36329,1.96094 4.36329,4.36719c0,2.41015 -1.95704,4.37109 -4.36329,4.37109" fill="#ffffff"/>
   <path id="svg_106" fill-rule="nonzero" d="m209.875,133.05664c-1.55079,0 -2.8125,1.26562 -2.8125,2.8164c0,1.55469 1.26171,2.81641 2.8125,2.81641c1.55078,0 2.8125,-1.26172 2.8125,-2.81641c0,-1.55078 -1.26172,-2.8164 -2.8125,-2.8164zm0,7.1875c-2.40625,0 -4.36329,-1.96094 -4.36329,-4.3711c0,-2.41015 1.95704,-4.36718 4.36329,-4.36718c2.41015,0 4.36328,1.95703 4.36328,4.36718c0,2.41016 -1.95313,4.3711 -4.36328,4.3711" fill="#ffffff"/>
   <path id="svg_107" fill-rule="nonzero" d="m195.51953,127.54882c-1.55078,0 -2.8125,1.26172 -2.8125,2.8125c0,1.55469 1.26172,2.81641 2.8125,2.81641c1.55468,0 2.8125,-1.26172 2.8125,-2.81641c0,-1.55078 -1.25782,-2.8125 -2.8125,-2.8125zm0,7.17969c-2.40625,0 -4.36328,-1.95703 -4.36328,-4.36719c0,-2.40625 1.95703,-4.36718 4.36328,-4.36718c2.40625,0 4.36718,1.96093 4.36718,4.36718c0,2.41016 -1.96093,4.36719 -4.36718,4.36719" fill="#ffffff"/>
   <path id="svg_108" fill-rule="nonzero" d="m181.16796,120.45507c-1.55468,0 -2.8125,1.26563 -2.8125,2.82032c0,1.55078 1.25782,2.8164 2.8125,2.8164c1.55079,0 2.8125,-1.26562 2.8125,-2.8164c0,-1.55469 -1.26171,-2.82032 -2.8125,-2.82032zm0,7.1875c-2.40625,0 -4.36718,-1.95703 -4.36718,-4.36718c0,-2.40625 1.96093,-4.3711 4.36718,-4.3711c2.40625,0 4.36329,1.96485 4.36329,4.3711c0,2.41015 -1.95704,4.36718 -4.36329,4.36718" fill="#ffffff"/>
   <path id="svg_109" fill-rule="nonzero" d="m333.1875,252.91601l-2.32422,0l0,-118.02344l2.32422,0l0,118.02344" fill="#ffffff"/>
   <g id="svg_110" clip-path="url(#id2)">
    <path id="svg_111" fill-rule="nonzero" d="m331.63671,252.14257l0.77735,0l0,-116.47265l-0.77735,0l0,116.47265zm2.32813,1.55079l-3.875,0l0,-119.57422l3.875,0l0,119.57422" fill="#ffffff"/>
   </g>
   <path id="svg_112" fill-rule="nonzero" d="m329.70312,133.11914c0,1.28906 1.03906,2.32812 2.32422,2.32812c1.28125,0 2.32422,-1.03906 2.32422,-2.32812c0,-1.28125 -1.04297,-2.32422 -2.32422,-2.32422c-1.28516,0 -2.32422,1.04297 -2.32422,2.32422" fill="#ffffff"/>
   <g id="svg_113" clip-path="url(#id3)">
    <path id="svg_114" fill-rule="nonzero" d="m332.02734,131.56836c-0.85547,0 -1.54688,0.69531 -1.54688,1.55078c0,0.85547 0.69141,1.55078 1.54688,1.55078c0.85156,0 1.55078,-0.69531 1.55078,-1.55078c0,-0.85547 -0.69922,-1.55078 -1.55078,-1.55078zm0,4.65234c-1.71094,0 -3.10156,-1.38672 -3.10156,-3.10156c0,-1.71094 1.39062,-3.10157 3.10156,-3.10157c1.70703,0 3.09766,1.39063 3.09766,3.10157c0,1.71484 -1.39063,3.10156 -3.09766,3.10156" fill="#ffffff"/>
   </g>
   <path id="svg_115" fill-rule="nonzero" d="m17.97265,233.57226l3.72656,0l0,-19.53515l-3.72656,0l0,19.53515" fill="#ffffff"/>
   <path id="svg_116" fill-rule="nonzero" d="m18.75,232.79882l2.17578,0l0,-17.98828l-2.17578,0l0,17.98828zm3.72656,1.55079l-5.27735,0l0,-21.08985l5.27735,0l0,21.08985" fill="#ffffff"/>
   <path id="svg_117" fill-rule="nonzero" d="m17.97265,178.07226l3.72656,0l0,-19.53906l-3.72656,0l0,19.53906" fill="#ffffff"/>
   <path id="svg_118" fill-rule="nonzero" d="m18.75,177.29492l2.17578,0l0,-17.98438l-2.17578,0l0,17.98438zm3.72656,1.55078l-5.27735,0l0,-21.08594l5.27735,0l0,21.08594" fill="#ffffff"/>
   <path id="svg_119" fill-rule="nonzero" d="m97.0625,188.28711c-0.39844,0 -0.73829,-0.30469 -0.77344,-0.70704c-0.03516,-0.42968 0.28125,-0.80859 0.70703,-0.84375c8.54687,-0.73828 11.03125,-3.76562 12.24219,-6.32031c1.14453,-2.42187 0.10937,-5.32812 -2.3125,-6.47265c-1.85547,-0.87891 -4.08203,-0.08594 -4.96485,1.77343c-0.66406,1.41016 -0.0625,3.10157 1.34766,3.76953c0.50781,0.24219 1.07812,0.27344 1.60937,0.08204c0.53125,-0.1875 0.95704,-0.57422 1.19532,-1.08204c0.17578,-0.37109 0.19531,-0.78906 0.05859,-1.17187c-0.13672,-0.38672 -0.41797,-0.69531 -0.78516,-0.87109c-0.38671,-0.1836 -0.55468,-0.64454 -0.37109,-1.03516c0.18359,-0.38672 0.64844,-0.54688 1.03516,-0.36719c0.74218,0.35156 1.30468,0.97266 1.58203,1.75c0.27734,0.77735 0.23437,1.61328 -0.11719,2.35547c-0.86328,1.82813 -3.04687,2.60938 -4.875,1.74219c-2.17969,-1.03125 -3.11328,-3.65235 -2.07812,-5.83594c1.24218,-2.63281 4.39843,-3.76562 7.03125,-2.51562c3.1914,1.51562 4.55468,5.34765 3.04296,8.54296c-2.05859,4.35157 -6.22265,6.57422 -13.50781,7.20313c-0.02344,0.00391 -0.04687,0.00391 -0.0664,0.00391" fill="#ffffff"/>
   <path id="svg_120" fill-rule="nonzero" d="m104.66015,178.13086c-0.66406,-0.28907 -0.96875,-1.06641 -0.67969,-1.73047c0.29297,-0.66407 1.06641,-0.96875 1.73047,-0.67969c0.66407,0.29297 0.96875,1.06641 0.67969,1.73047c-0.29297,0.66797 -1.06641,0.96875 -1.73047,0.67969" fill="#ffffff"/>
   <path id="svg_121" fill-rule="nonzero" d="m105.1875,176.38867c-0.20704,0 -0.40625,0.12109 -0.4961,0.32422c-0.11719,0.26953 0.00781,0.58593 0.28125,0.70703c0.12891,0.05859 0.27344,0.05859 0.41016,0.00781c0.13281,-0.05078 0.23828,-0.15625 0.29687,-0.28516c0.11719,-0.27343 -0.00781,-0.58984 -0.27734,-0.71093c-0.07031,-0.02735 -0.14453,-0.04297 -0.21484,-0.04297zm-0.00391,2.6289c-0.28125,0 -0.56641,-0.05859 -0.83203,-0.17578c-1.0586,-0.46093 -1.53906,-1.69922 -1.07813,-2.7539c0.46094,-1.05469 1.69532,-1.53907 2.75,-1.07813c1.05469,0.46094 1.53907,1.69922 1.07422,2.75391c-0.22265,0.51172 -0.63281,0.90625 -1.15234,1.10937c-0.2461,0.09766 -0.50391,0.14453 -0.76172,0.14453" fill="#ffffff"/>
   <path id="svg_122" fill-rule="nonzero" d="m130.17187,200.19726c-0.16016,0 -0.32031,-0.0039 -0.48047,-0.01953c-1.52344,-0.125 -2.91015,-0.83594 -3.89844,-2.00781c-0.82031,-0.96094 -1.21093,-2.19141 -1.10937,-3.45313c0.10156,-1.26562 0.69141,-2.41406 1.65625,-3.23047c1.65625,-1.41015 4.15234,-1.20312 5.5625,0.45704c1.17969,1.39062 1.00781,3.48828 -0.38281,4.67187c-0.32422,0.27734 -0.81641,0.23828 -1.09375,-0.08984c-0.27735,-0.32813 -0.23828,-0.81641 0.08984,-1.09375c0.74219,-0.62891 0.83203,-1.74219 0.20313,-2.48438c-0.85547,-1.00781 -2.36719,-1.13281 -3.375,-0.27734c-0.64844,0.55078 -1.04688,1.32422 -1.11719,2.17187c-0.06641,0.85157 0.19531,1.67578 0.75,2.32813c0.72265,0.84765 1.73047,1.37109 2.84375,1.46094c1.10937,0.09375 2.1914,-0.25782 3.04297,-0.98047c1.10547,-0.9375 1.77734,-2.2461 1.89453,-3.69141c0.11719,-1.44141 -0.33203,-2.84375 -1.26953,-3.94922c-2,-2.35937 -5.51563,-4.85547 -15.02735,-3.17187c-0.42187,0.07812 -0.82422,-0.20703 -0.89843,-0.62891c-0.07422,-0.42187 0.20703,-0.82812 0.6289,-0.89844c8.03125,-1.42187 13.10938,-0.28125 16.48047,3.69532c1.20313,1.41796 1.78516,3.22656 1.62891,5.08203c-0.14844,1.85547 -1.01563,3.54297 -2.4336,4.74609c-1.04297,0.89063 -2.34375,1.36328 -3.69531,1.36328" fill="#ffffff"/>
   <path id="svg_123" fill-rule="nonzero" d="m129.21484,193.78711c-0.62109,0.49609 -0.72656,1.40625 -0.22656,2.03125c0.49609,0.62109 1.40625,0.72656 2.02734,0.23046c0.625,-0.5 0.72656,-1.41015 0.22656,-2.03125c-0.49609,-0.625 -1.40234,-0.72656 -2.02734,-0.23046" fill="#ffffff"/>
   <path id="svg_124" fill-rule="nonzero" d="m129.21484,193.78711l0.00781,0l-0.00781,0zm0.89844,0.46093c-0.14844,0 -0.29297,0.05078 -0.41407,0.14453c-0.14062,0.11329 -0.22656,0.27344 -0.25,0.44922c-0.01562,0.17969 0.03125,0.35157 0.14454,0.49219c0.11328,0.14063 0.26953,0.23047 0.44531,0.24609c0.17969,0.02344 0.35547,-0.02734 0.49219,-0.13671c0.14062,-0.11329 0.23046,-0.27344 0.24609,-0.44922c0.02344,-0.17969 -0.02734,-0.35547 -0.14063,-0.49219c-0.10937,-0.14063 -0.26953,-0.23047 -0.44531,-0.25c-0.02344,-0.00391 -0.05078,-0.00391 -0.07812,-0.00391zm0.00781,2.89063c-0.08594,0 -0.16797,-0.00391 -0.25391,-0.01172c-0.58984,-0.06641 -1.11718,-0.36328 -1.48828,-0.82422c-0.36719,-0.46484 -0.53515,-1.04687 -0.46875,-1.63672c0.06641,-0.58594 0.35938,-1.11719 0.82031,-1.48437c0.46485,-0.3711 1.04688,-0.54297 1.63282,-0.47266c0.58984,0.06641 1.11718,0.35547 1.48828,0.82422c0.36719,0.46094 0.53515,1.04297 0.46875,1.63672c-0.06641,0.58594 -0.35547,1.11328 -0.82031,1.48437c-0.39844,0.31641 -0.87891,0.48438 -1.37891,0.48438" fill="#ffffff"/>
   <path id="svg_125" fill-rule="nonzero" d="m97.0625,188.28711c-0.42579,0 -0.77344,-0.34375 -0.77344,-0.77344c-0.00391,-0.42578 0.33984,-0.77735 0.76953,-0.77735c31.87891,-0.16406 45.22266,-7.75781 54.05469,-12.78125c4.37109,-2.48828 7.82812,-4.45312 11.87109,-4.46875c0.01563,0 0.03125,0 0.04688,0c5.58593,0 10.14453,4.53516 10.16796,10.13672c0.01172,2.21485 -0.84375,4.30078 -2.40234,5.87891c-1.55469,1.57422 -3.63672,2.44531 -5.84766,2.45703c-0.01171,0 -0.02343,0 -0.03515,0c-3.72656,0 -6.76953,-3.03125 -6.78516,-6.76562c-0.01562,-3.08204 2.48047,-5.60157 5.5625,-5.61719c0.00391,0 0.01172,0 0.01953,0c1.22657,0 2.38282,0.47656 3.25391,1.34375c0.875,0.86719 1.35937,2.02734 1.36719,3.26562c0.00781,2.125 -1.71094,3.86328 -3.83594,3.875c-0.00391,0 -0.00781,0 -0.01563,0c-1.77734,0 -3.23046,-1.44531 -3.23437,-3.22656c-0.00391,-0.42969 0.33984,-0.77734 0.76953,-0.78125c0.00391,0 0.00391,0 0.00391,0c0.42578,0 0.77343,0.34766 0.77734,0.77344c0.00391,0.92969 0.75781,1.68359 1.68359,1.68359c0.00391,0 0.00782,0 0.00782,0c1.27343,-0.00781 2.29687,-1.04687 2.29297,-2.3164c-0.00391,-0.82422 -0.32813,-1.59375 -0.90625,-2.17188c-0.58204,-0.57812 -1.34766,-0.89062 -2.16407,-0.89062c-0.0039,0 -0.01172,0 -0.01562,0c-2.22266,0.00781 -4.02735,1.83203 -4.01563,4.05468c0.01172,2.88282 2.35938,5.21875 5.23828,5.21875c0.00782,0 0.01563,0 0.01954,0c1.80468,-0.0039 3.49218,-0.71484 4.75781,-1.99609c1.26953,-1.28125 1.96094,-2.97656 1.95312,-4.77734c-0.01953,-4.7461 -3.88281,-8.59375 -8.61718,-8.59375c-0.01563,0 -0.02735,0 -0.03907,0c-3.64062,0.01562 -6.77343,1.80078 -11.11328,4.26953c-8.96875,5.10547 -22.52734,12.8164 -54.8125,12.98047l-0.0039,0" fill="#ffffff"/>
   <path id="svg_126" fill-rule="nonzero" d="m164.38671,180.81836c-0.0039,-0.65625 -0.53515,-1.1836 -1.1875,-1.17969c-0.65625,0.0039 -1.18359,0.53515 -1.17968,1.1914c0.0039,0.65625 0.53515,1.1836 1.1875,1.17579c0.65625,0 1.18359,-0.53125 1.17968,-1.1875" fill="#ffffff"/>
   <path id="svg_127" fill-rule="nonzero" d="m163.20312,180.41601c-0.22656,0 -0.41016,0.1836 -0.40625,0.41016c0,0.22656 0.18359,0.40625 0.40625,0.40625c0.11328,0 0.21484,-0.04297 0.29297,-0.11719c0.07422,-0.08203 0.11719,-0.18359 0.11328,-0.29297c0,-0.10547 -0.04297,-0.21094 -0.11719,-0.28906c-0.07812,-0.07813 -0.17968,-0.11719 -0.28906,-0.11719zm0,2.36719c-1.07812,0 -1.95703,-0.87109 -1.95703,-1.94922c-0.00391,-1.08203 0.86719,-1.96484 1.94922,-1.96875c0.5,0.01563 1.01562,0.19531 1.38672,0.56641c0.375,0.36718 0.57812,0.85937 0.58203,1.38281c0,0.52734 -0.20313,1.01562 -0.57031,1.39453c-0.36719,0.36719 -0.85938,0.57422 -1.38282,0.57422c-0.0039,0 -0.00781,0 -0.00781,0" fill="#ffffff"/>
   <path id="svg_128" fill-rule="nonzero" d="m146.73828,178.03711c-0.26172,0 -0.51953,-0.13282 -0.66407,-0.37891c-0.21875,-0.36719 -0.10156,-0.84375 0.26563,-1.0625c1.73828,-1.04297 2.96875,-2.73828 3.46094,-4.77734c0.49609,-2.03516 0.1875,-4.125 -0.85938,-5.88282c-1.67969,-2.8125 -5.33203,-3.73047 -8.14453,-2.05078c-1.05469,0.63281 -1.80078,1.63672 -2.09766,2.82422c-0.30078,1.19531 -0.11718,2.42969 0.51172,3.48438c0.48438,0.80859 1.25,1.38281 2.16407,1.61328c0.91015,0.22656 1.85937,0.08984 2.66796,-0.39453c1.25782,-0.75391 1.67188,-2.39454 0.91797,-3.65235c-0.5625,-0.9414 -1.77734,-1.24219 -2.71093,-0.6875c-0.67188,0.40625 -0.89454,1.28516 -0.48829,1.96094c0.21875,0.36328 0.09766,0.84375 -0.26953,1.0625c-0.36718,0.21875 -0.84375,0.09766 -1.0625,-0.26563c-0.84375,-1.41015 -0.38281,-3.24609 1.02344,-4.08593c1.67188,-1 3.83984,-0.45313 4.83984,1.21875c1.19141,1.99218 0.53907,4.58984 -1.45703,5.78125c-1.16406,0.69531 -2.52343,0.89843 -3.83984,0.5664c-1.3125,-0.32812 -2.42188,-1.15234 -3.11719,-2.32031c-0.83984,-1.40625 -1.08594,-3.06641 -0.6875,-4.66016c0.40235,-1.59375 1.39844,-2.93359 2.8086,-3.77734c3.54687,-2.11719 8.15234,-0.96094 10.26953,2.58984c1.26172,2.10547 1.63281,4.60547 1.03906,7.04297c-0.58984,2.44532 -2.07422,4.48438 -4.17188,5.74219c-0.125,0.07422 -0.26171,0.10938 -0.39843,0.10938" fill="#ffffff"/>
   <path id="svg_129" fill-rule="nonzero" d="m142.91015,168.34179c0.30078,0.50391 0.13672,1.15235 -0.36328,1.45313c-0.50391,0.30078 -1.15234,0.13672 -1.45312,-0.36328c-0.29688,-0.50391 -0.13672,-1.15625 0.36328,-1.45703c0.5039,-0.29688 1.15234,-0.13282 1.45312,0.36718" fill="#ffffff"/>
   <path id="svg_130" fill-rule="nonzero" d="m142,168.60351c-0.04688,0 -0.09766,0.01172 -0.14454,0.03906c-0.08593,0.05079 -0.11718,0.12891 -0.1289,0.17579c-0.01172,0.04296 -0.01953,0.125 0.03515,0.21484c0.05079,0.08594 0.12891,0.11719 0.17188,0.125c0.04297,0.01172 0.125,0.02344 0.21094,-0.03125c0.13672,-0.07813 0.17968,-0.25391 0.10156,-0.38672c-0.05469,-0.08984 -0.14844,-0.13672 -0.24609,-0.13672zm0.0039,2.11719c-0.14844,0 -0.30078,-0.01953 -0.44922,-0.05469c-0.47656,-0.12109 -0.875,-0.41797 -1.125,-0.83594c-0.25,-0.42578 -0.32812,-0.91406 -0.20703,-1.39453c0.1211,-0.47265 0.41797,-0.875 0.83594,-1.125c0.86719,-0.51953 1.99609,-0.23828 2.51562,0.63282c0.51954,0.86718 0.23438,2 -0.63281,2.51953c-0.28906,0.16797 -0.60937,0.25781 -0.9375,0.25781" fill="#ffffff"/>
   <path id="svg_131" fill-rule="nonzero" d="m97.10937,188.28711c-0.44531,-0.00391 -0.82422,-0.33204 -0.82031,-0.78125c0,-0.42579 0.34765,-0.76954 0.77344,-0.76954c0.0039,0 0.03125,0 0.04296,0c13.31641,0 19.72657,-10.44921 24.40625,-18.07812c2.33985,-3.8125 4.1875,-6.82031 6.38672,-7.87109c1.53907,-0.73047 3.26563,-0.82032 4.8711,-0.25c1.60156,0.57031 2.88672,1.73046 3.61718,3.26953c0.60157,1.27343 0.67579,2.69922 0.20704,4.01953c-0.46875,1.32422 -1.42579,2.38672 -2.69532,2.99219c-1.04687,0.49609 -2.23047,0.55468 -3.32422,0.16796c-1.09765,-0.39062 -1.97656,-1.18359 -2.48046,-2.23828c-0.85938,-1.8125 -0.08594,-3.99218 1.72656,-4.85547c1.52734,-0.72656 3.36328,-0.07421 4.08984,1.45313c0.29688,0.62891 0.33203,1.34375 0.09766,1.99609c-0.23047,0.66016 -0.70703,1.1875 -1.33594,1.48438c-0.53906,0.25781 -1.15234,0.28906 -1.71484,0.08984c-0.5625,-0.20312 -1.01563,-0.60937 -1.27344,-1.15234c-0.18359,-0.38672 -0.01953,-0.84766 0.36719,-1.03516c0.38672,-0.17969 0.84765,-0.01953 1.03515,0.36719c0.07813,0.16797 0.21485,0.29687 0.39063,0.35547c0.17578,0.0625 0.36328,0.05469 0.53125,-0.02735c0.2539,-0.12109 0.44531,-0.33203 0.54297,-0.59765c0.09375,-0.26953 0.07812,-0.5586 -0.04297,-0.8125c-0.35938,-0.75781 -1.26563,-1.07813 -2.01953,-0.71875c-1.04297,0.49609 -1.48828,1.74609 -0.99219,2.78906c0.32422,0.67578 0.89062,1.1875 1.59375,1.44141c0.70703,0.25 1.46875,0.20703 2.14453,-0.11328c0.89453,-0.42579 1.56641,-1.17188 1.89844,-2.10547c0.33203,-0.9336 0.27734,-1.9375 -0.14453,-2.83203c-0.55469,-1.16016 -1.52735,-2.04297 -2.73828,-2.47266c-1.21485,-0.43359 -2.52344,-0.36328 -3.6836,0.19141c-1.78906,0.84765 -3.61328,3.82812 -5.73047,7.27343c-4.875,7.94532 -11.55078,18.82032 -25.72656,18.82032" fill="#ffffff"/>
   <path id="svg_132" fill-rule="nonzero" d="m131.66015,166.82617c-0.16797,-0.35156 -0.58984,-0.50391 -0.9414,-0.33594c-0.35157,0.16797 -0.5,0.58984 -0.33204,0.94141c0.16407,0.35156 0.58594,0.5 0.9375,0.33593c0.35157,-0.16796 0.5,-0.58984 0.33594,-0.9414" fill="#ffffff"/>
   <path id="svg_133" fill-rule="nonzero" d="m130.95703,167.1582c0.01562,0.03125 0.0625,0.04687 0.09375,0.03125c0.03125,-0.01172 0.04687,-0.0625 0.03515,-0.09375c-0.01562,-0.02734 -0.0664,-0.04297 -0.09765,-0.03125c-0.03516,0.01562 -0.04688,0.05859 -0.03125,0.09375zm0.0664,1.45312c-0.16797,0 -0.33593,-0.02734 -0.5,-0.08593c-0.37109,-0.13282 -0.66797,-0.40235 -0.83984,-0.76172c-0.17188,-0.35547 -0.1875,-0.75781 -0.05859,-1.13281c0.13281,-0.3711 0.40234,-0.67188 0.76171,-0.84375c0.35547,-0.16407 0.75782,-0.1875 1.12891,-0.05469c0.375,0.13281 0.67188,0.39844 0.84375,0.75781c0.34766,0.74219 0.03516,1.62891 -0.70312,1.97656c-0.20313,0.09766 -0.41797,0.14453 -0.63282,0.14453" fill="#ffffff"/>
   <path id="svg_134" fill-rule="nonzero" d="m88.78515,202.99023c-0.75781,0 -1.52344,-0.16406 -2.2539,-0.50781c-3.19141,-1.51953 -4.5586,-5.34766 -3.04688,-8.54297c2.0625,-4.35156 6.23047,-6.57031 13.51172,-7.20313c0.42187,-0.04687 0.80078,0.28125 0.83984,0.70704c0.03516,0.42578 -0.27734,0.80468 -0.70703,0.83984c-8.54687,0.73828 -11.03125,3.76562 -12.24219,6.32031c-1.14843,2.42188 -0.10937,5.32422 2.3086,6.47656c1.85937,0.87891 4.08594,0.08204 4.96484,-1.77734c0.67188,-1.41016 0.06641,-3.10156 -1.33984,-3.76953c-0.51172,-0.24219 -1.08203,-0.26953 -1.61328,-0.08203c-0.53125,0.1914 -0.95313,0.57812 -1.19532,1.08594c-0.17578,0.37109 -0.19921,0.78515 -0.05859,1.16796c0.13672,0.38672 0.41406,0.69532 0.78516,0.8711c0.38672,0.18359 0.55078,0.64844 0.36718,1.03515c-0.17968,0.38672 -0.64453,0.55079 -1.03125,0.36719c-0.74218,-0.35156 -1.30468,-0.97265 -1.58203,-1.75c-0.27734,-0.77344 -0.23437,-1.61328 0.11719,-2.35937c0.41797,-0.87891 1.15625,-1.55078 2.07813,-1.87891c0.91796,-0.32812 1.91406,-0.27734 2.79296,0.13672c2.1836,1.03516 3.11719,3.65625 2.08594,5.83984c-0.90625,1.90235 -2.80469,3.02344 -4.78125,3.02344" fill="#ffffff"/>
   <path id="svg_135" fill-rule="nonzero" d="m89.46484,196.88867c0.66406,0.29297 0.96875,1.0664 0.67578,1.73047c-0.28906,0.66797 -1.0625,0.96875 -1.72656,0.67968c-0.66406,-0.29296 -0.96875,-1.0664 -0.67969,-1.73046c0.29297,-0.66797 1.06641,-0.96875 1.73047,-0.67969" fill="#ffffff"/>
   <path id="svg_136" fill-rule="nonzero" d="m88.9375,197.55273c-0.0625,0 -0.12891,0.01563 -0.19532,0.03906c-0.13281,0.05078 -0.23828,0.15625 -0.29687,0.28516c-0.11719,0.27344 0.00781,0.58984 0.27734,0.71094c0.13281,0.05859 0.28125,0.05859 0.41406,0.0039c0.13282,-0.05078 0.23829,-0.15234 0.29688,-0.28125c0.11719,-0.27343 -0.00781,-0.58984 -0.27734,-0.71093c-0.07422,-0.02735 -0.14454,-0.04688 -0.21875,-0.04688zm0,2.63281c-0.28125,0 -0.56641,-0.05859 -0.83594,-0.17578c-1.05469,-0.46484 -1.53516,-1.69922 -1.07422,-2.7539c0.22266,-0.51172 0.62891,-0.90625 1.14844,-1.10938c0.52343,-0.20312 1.08984,-0.19531 1.60156,0.03125c1.05469,0.46094 1.53906,1.69922 1.07812,2.75c-0.22656,0.51563 -0.63671,0.90625 -1.15625,1.11328c-0.24609,0.09766 -0.5039,0.14453 -0.76171,0.14453" fill="#ffffff"/>
   <path id="svg_137" fill-rule="nonzero" d="m69.98046,190.29492c-4.72656,0 -8.08203,-1.39063 -10.52734,-4.28125c-1.20703,-1.42188 -1.78516,-3.22266 -1.63281,-5.07813c0.15234,-1.85937 1.01562,-3.54687 2.4375,-4.75c1.16406,-0.99218 2.64844,-1.47265 4.17187,-1.34375c1.52735,0.125 2.91407,0.83594 3.90235,2.00391c0.82031,0.96875 1.21484,2.19141 1.10937,3.45703c-0.10547,1.26563 -0.6914,2.41016 -1.65625,3.23047c-0.80469,0.68359 -1.82812,1.01172 -2.875,0.92578c-1.05078,-0.08594 -2.0039,-0.57812 -2.6875,-1.38281c-0.57031,-0.67578 -0.84765,-1.53125 -0.77344,-2.41406c0.07032,-0.88282 0.48047,-1.6836 1.15625,-2.26172c0.32813,-0.27735 0.81641,-0.23047 1.09375,0.08984c0.27735,0.32813 0.23438,0.82031 -0.08984,1.09766c-0.35937,0.30468 -0.57812,0.73047 -0.61328,1.19922c-0.03906,0.46875 0.10547,0.92578 0.41016,1.28125c0.41406,0.49218 0.99218,0.78906 1.6289,0.84375c0.64063,0.04296 1.25781,-0.14844 1.7461,-0.5625c0.64843,-0.55079 1.04687,-1.32422 1.11328,-2.17188c0.07031,-0.85156 -0.19532,-1.67578 -0.7461,-2.32812c-0.71875,-0.85157 -1.73047,-1.36719 -2.84375,-1.46094c-1.11328,-0.08985 -2.19531,0.25781 -3.04297,0.98047c-1.10546,0.93359 -1.77734,2.24609 -1.89453,3.6914c-0.11718,1.44141 0.33203,2.84766 1.26563,3.95313c2,2.35937 5.51953,4.85156 15.03125,3.17187c0.42578,-0.07812 0.82422,0.20313 0.89844,0.625c0.07812,0.42188 -0.20704,0.82422 -0.62891,0.90235c-2.19531,0.38672 -4.17188,0.58203 -5.95313,0.58203" fill="#ffffff"/>
   <path id="svg_138" fill-rule="nonzero" d="m64.91015,181.23242c0.6211,-0.4961 0.72266,-1.40625 0.22656,-2.03125c-0.49609,-0.625 -1.40234,-0.72656 -2.02734,-0.23047c-0.625,0.5 -0.72656,1.41016 -0.23047,2.03516c0.4961,0.625 1.40625,0.72656 2.03125,0.22656" fill="#ffffff"/>
   <path id="svg_139" fill-rule="nonzero" d="m64.00781,179.43164c-0.14453,0 -0.29297,0.05078 -0.41797,0.14843c-0.28516,0.22657 -0.33594,0.65235 -0.10156,0.9375c0.22656,0.28907 0.64843,0.33985 0.9375,0.10938c0.28515,-0.23047 0.33593,-0.65234 0.10547,-0.94141c-0.13282,-0.16406 -0.32813,-0.2539 -0.52344,-0.2539zm0.90234,1.80468l0.00781,0l-0.00781,0zm-0.89844,1.08594c-0.65234,0 -1.30078,-0.28515 -1.73828,-0.83594c-0.76172,-0.95703 -0.60547,-2.35937 0.35157,-3.12109c0.95703,-0.76172 2.35546,-0.60547 3.11718,0.35156c0.76563,0.95703 0.60547,2.36328 -0.35156,3.125c-0.40625,0.32422 -0.89453,0.48047 -1.37891,0.48047" fill="#ffffff"/>
   <path id="svg_140" fill-rule="nonzero" d="m31.09375,205.5332c-5.58594,0 -10.14454,-4.53516 -10.16797,-10.13281c-0.02344,-4.57422 3.67968,-8.32032 8.2539,-8.33594c0.00782,0 0.01953,0 0.03125,0c1.80078,0 3.49219,0.69531 4.77735,1.96484c1.28515,1.28125 2,2.98438 2.00781,4.79688c0.01172,3.08203 -2.48047,5.60547 -5.55859,5.61719c-0.00782,0 -0.01563,0 -0.02344,0c-1.22656,0 -2.37891,-0.47266 -3.25391,-1.33985c-0.8789,-0.87109 -1.36328,-2.03125 -1.36719,-3.26562c-0.00781,-1.03125 0.39063,-2.00391 1.11719,-2.73438c0.72266,-0.73047 1.6875,-1.14062 2.71875,-1.14062c0.89063,-0.01953 1.67969,0.32812 2.29297,0.93359c0.61719,0.61328 0.95703,1.42578 0.96094,2.28906c0,0.42969 -0.34375,0.77735 -0.77344,0.78125c0,0 -0.00391,0 -0.00391,0c-0.42578,0 -0.77343,-0.34375 -0.77343,-0.77343c-0.00391,-0.44922 -0.17969,-0.875 -0.5,-1.19141c-0.32032,-0.31641 -0.73828,-0.48828 -1.1875,-0.48828c-0.00391,0 -0.00391,0 -0.00782,0c-0.61718,0.0039 -1.19531,0.24219 -1.6289,0.68359c-0.4336,0.4336 -0.66797,1.01563 -0.66406,1.62891c0.0039,0.82422 0.32421,1.59375 0.91015,2.17578c0.58203,0.57422 1.31641,0.89062 2.17578,0.89062c2.22657,-0.01171 4.02735,-1.83203 4.01563,-4.05859c-0.00781,-1.40234 -0.55469,-2.71484 -1.55078,-3.70312c-0.98828,-0.98047 -2.29297,-1.51563 -3.6836,-1.51563c-0.00781,0 -0.01562,0 -0.02734,0c-3.71484,0.01563 -6.72266,3.05469 -6.70703,6.77734c0.01953,4.7461 3.88281,8.58985 8.61719,8.58985c0.01562,0 0.02734,0 0.03906,0c3.63672,-0.01563 6.77344,-1.79688 11.11328,-4.26953c8.96875,-5.10157 22.52344,-12.81641 54.8125,-12.97657c0.44922,0.01563 0.77734,0.33985 0.78125,0.76954c0,0.42578 -0.34375,0.77734 -0.77344,0.78125c-31.8789,0.16015 -45.22656,7.7539 -54.05469,12.77734c-4.375,2.48828 -7.82812,4.45312 -11.87109,4.46875c-0.01562,0 -0.03125,0 -0.04687,0" fill="#ffffff"/>
   <path id="svg_141" fill-rule="nonzero" d="m29.73828,194.20117c0,0.65234 0.53515,1.18359 1.1914,1.17969c0.65235,-0.00391 1.17969,-0.53516 1.17578,-1.19141c-0.0039,-0.65234 -0.53515,-1.18359 -1.1914,-1.17969c-0.65235,0.00391 -1.17969,0.53906 -1.17578,1.19141" fill="#ffffff"/>
   <path id="svg_142" fill-rule="nonzero" d="m30.92187,193.78711c-0.11719,-0.02735 -0.21484,0.04296 -0.29297,0.12109c-0.07422,0.07812 -0.11719,0.17969 -0.11719,0.28906c0,0.22656 0.1836,0.40625 0.41016,0.40625c0,0 0,0 0.00391,0c0.22265,0 0.40625,-0.18359 0.40625,-0.41015c-0.00391,-0.22657 -0.1875,-0.40625 -0.41016,-0.40625zm0,2.37109c-1.07812,0 -1.95703,-0.875 -1.96094,-1.95313c0,-0.52343 0.19922,-1.01953 0.56641,-1.39062c0.37109,-0.37109 0.85937,-0.57813 1.38672,-0.58203c0,0 0.0039,0 0.00781,0c1.07422,0 1.95313,0.875 1.96094,1.95312c0.0039,1.08203 -0.8711,1.96485 -1.95313,1.97266c0,0 -0.0039,0 -0.00781,0" fill="#ffffff"/>
   <path id="svg_143" fill-rule="nonzero" d="m50.29296,213.5332c-0.61328,0 -1.23046,-0.07813 -1.83984,-0.22656c-1.94141,-0.48828 -3.57422,-1.70703 -4.60156,-3.42578c-1.25781,-2.10938 -1.625,-4.60938 -1.03516,-7.04297c0.58985,-2.44532 2.07422,-4.48828 4.17188,-5.7461c0.36718,-0.21875 0.84375,-0.09765 1.0625,0.26953c0.22265,0.36719 0.10156,0.84375 -0.26563,1.06641c-1.73828,1.03906 -2.96875,2.73438 -3.46484,4.77344c-0.49219,2.03515 -0.1875,4.125 0.86328,5.88281c0.81641,1.36328 2.10937,2.32422 3.64453,2.71484c1.53906,0.38672 3.13672,0.15235 4.5,-0.66406c1.05469,-0.6289 1.79688,-1.63281 2.09766,-2.82422c0.29687,-1.19531 0.12109,-2.43359 -0.51172,-3.48437c-0.48047,-0.8125 -1.25,-1.38281 -2.16406,-1.60938c-0.91016,-0.23047 -1.85938,-0.08984 -2.66407,0.39063c-1.26172,0.7539 -1.67187,2.39453 -0.92187,3.65625c0.55859,0.9375 1.77734,1.24219 2.71094,0.67969c0.67578,-0.40235 0.89453,-1.27735 0.49218,-1.95313c-0.21875,-0.36719 -0.10156,-0.84766 0.26563,-1.06641c0.36719,-0.21484 0.84375,-0.09765 1.0625,0.26954c0.84375,1.41015 0.38281,3.24218 -1.02344,4.08593c-1.67187,0.9961 -3.83984,0.45313 -4.83984,-1.21875c-1.19141,-2 -0.53516,-4.58984 1.45703,-5.78515c1.16406,-0.69532 2.52344,-0.89844 3.83984,-0.56641c1.3125,0.33203 2.42188,1.15625 3.11719,2.31641c0.84375,1.41406 1.08594,3.0664 0.68359,4.66015c-0.39843,1.59766 -1.39843,2.9375 -2.80468,3.78125c-1.17579,0.70313 -2.4961,1.06641 -3.83204,1.06641" fill="#ffffff"/>
   <path id="svg_144" fill-rule="nonzero" d="m51.21484,206.68164c-0.29688,-0.50391 -0.13672,-1.15625 0.36719,-1.45703c0.5,-0.29688 1.14843,-0.13672 1.44922,0.36718c0.30078,0.5 0.13671,1.15235 -0.36719,1.45313c-0.5,0.30078 -1.14844,0.13672 -1.44922,-0.36328" fill="#ffffff"/>
   <path id="svg_145" fill-rule="nonzero" d="m51.8789,206.27929c0.05469,0.08594 0.13281,0.1211 0.17578,0.12891c0.04297,0.01172 0.125,0.01953 0.21485,-0.03125c0.08593,-0.05078 0.11718,-0.13281 0.1289,-0.17188c0.00782,-0.04296 0.01953,-0.1289 -0.03125,-0.21484c-0.08203,-0.13672 -0.25781,-0.17969 -0.39062,-0.09766c-0.13281,0.07813 -0.17578,0.25391 -0.09766,0.38672zm0.2461,1.69141c-0.14844,0 -0.30079,-0.01953 -0.44922,-0.05859c-0.47657,-0.11719 -0.875,-0.41407 -1.125,-0.83594c-0.51953,-0.8711 -0.23438,-1.9961 0.63281,-2.51563c0.86328,-0.51953 1.99219,-0.23828 2.51172,0.63282c0.25,0.42187 0.32422,0.91406 0.20312,1.38671c-0.11718,0.48047 -0.41406,0.87891 -0.83593,1.13282c-0.28516,0.16797 -0.60938,0.25781 -0.9375,0.25781" fill="#ffffff"/>
   <path id="svg_146" fill-rule="nonzero" d="m63.49218,214.85351c-0.71875,0 -1.4375,-0.125 -2.13672,-0.37109c-1.60156,-0.57031 -2.89062,-1.73438 -3.61718,-3.26953c-1.2461,-2.61719 -0.13282,-5.76172 2.48437,-7.00782c2.16797,-1.03125 4.77344,-0.10546 5.80469,2.0625c0.86328,1.81641 0.08984,3.9961 -1.72266,4.85938c-0.73828,0.35156 -1.57422,0.39453 -2.34375,0.12109c-0.77343,-0.27343 -1.39062,-0.83593 -1.74218,-1.57812c-0.30079,-0.62891 -0.33594,-1.33594 -0.10157,-1.99219c0.23047,-0.66016 0.70703,-1.1875 1.33594,-1.48437c0.53906,-0.25782 1.14844,-0.28907 1.71094,-0.08985c0.5664,0.19922 1.01953,0.60938 1.27734,1.15235c0.1836,0.38671 0.01953,0.85156 -0.36719,1.03515c-0.38671,0.1836 -0.85156,0.01953 -1.03515,-0.36719c-0.07813,-0.16796 -0.21875,-0.29296 -0.39063,-0.35546c-0.17578,-0.0625 -0.36328,-0.05469 -0.52734,0.02734c-0.25781,0.12109 -0.44922,0.33594 -0.54297,0.60156c-0.09766,0.26563 -0.08203,0.55078 0.03906,0.80469c0.17578,0.37109 0.48047,0.64453 0.86328,0.78516c0.38282,0.13281 0.79297,0.11328 1.15625,-0.0625c1.03907,-0.4961 1.48829,-1.7461 0.99219,-2.78907c-0.66406,-1.39453 -2.34375,-1.99609 -3.73828,-1.32812c-1.84375,0.875 -2.62891,3.09375 -1.75391,4.9375c0.55469,1.16406 1.52344,2.04297 2.73829,2.47265c1.21484,0.4336 2.51953,0.36329 3.68359,-0.1875c1.78516,-0.85156 3.61719,-3.82812 5.73047,-7.28125c4.875,-7.9414 11.54687,-18.8125 25.72656,-18.8125c0.4375,-0.0039 0.82422,0.32813 0.82422,0.77344c-0.00391,0.42969 -0.34766,0.77735 -0.77734,0.77735c-0.00782,0.0039 -0.03125,0 -0.04688,0c-13.3125,0 -19.72266,10.44921 -24.40625,18.07812c-2.33594,3.80859 -4.18359,6.81641 -6.38281,7.86719c-0.8711,0.41406 -1.80078,0.62109 -2.73438,0.62109" fill="#ffffff"/>
   <path id="svg_147" fill-rule="nonzero" d="m62.46875,208.19726c0.16406,0.35156 0.58593,0.5 0.9375,0.33203c0.35156,-0.16797 0.5,-0.58984 0.33593,-0.9414c-0.16797,-0.35157 -0.58984,-0.5 -0.9414,-0.33203c-0.35157,0.16796 -0.50391,0.58593 -0.33203,0.9414" fill="#ffffff"/>
   <path id="svg_148" fill-rule="nonzero" d="m63.10156,207.82226c-0.00781,0 -0.01563,0 -0.02735,0.00781c-0.03125,0.01172 -0.04687,0.0625 -0.03515,0.09375l0.125,-0.0625c-0.00781,-0.02343 -0.03516,-0.03906 -0.0625,-0.03906zm-0.0625,0.10156c0.01953,0.03516 0.05859,0.05079 0.09375,0.03125c0.03515,-0.01562 0.05078,-0.05859 0.03515,-0.09375l-0.1289,0.0625zm0.0664,1.44922c-0.55078,0 -1.08593,-0.3125 -1.33984,-0.84375c-0.34766,-0.73828 -0.03516,-1.625 0.70313,-1.97265c0.73437,-0.35157 1.62109,-0.03907 1.97265,0.69922c0.16797,0.35546 0.19141,0.75781 0.0586,1.13281c-0.13282,0.37109 -0.40235,0.67187 -0.75782,0.83984c-0.20703,0.09766 -0.42187,0.14453 -0.63672,0.14453" fill="#ffffff"/>
   <path id="svg_149" fill-rule="nonzero" d="m22.47656,246.31836l149.17578,0l0,-135.32422c-8.95313,4.71875 -68.8125,34.60156 -149.17578,34.79297l0,100.53125zm150.72265,1.55078l-152.27343,0l0,-103.63282l0.77343,0c86.82032,0 149.71875,-34.86718 150.34375,-35.21875l1.15625,-0.65234l0,139.50391" fill="#ffffff"/>
   <path id="svg_150" fill-rule="nonzero" d="m21.69921,169.08007l0,-1.55468c86.82032,0 149.71875,-34.86719 150.34375,-35.22266l0.76172,1.35547c-0.625,0.35547 -63.88281,35.42187 -151.10547,35.42187" fill="#ffffff"/>
   <path id="svg_151" fill-rule="nonzero" d="m29.65234,247.0957l-1.55078,0l0,-102.16406l1.55078,0l0,102.16406" fill="#ffffff"/>
   <path id="svg_152" fill-rule="nonzero" d="m36.83203,247.0957l-1.55078,0l0,-102.39844l1.55078,0l0,102.39844" fill="#ffffff"/>
   <path id="svg_153" fill-rule="nonzero" d="m44.00781,247.0957l-1.55078,0l0,-102.78516l1.55078,0l0,102.78516" fill="#ffffff"/>
   <path id="svg_154" fill-rule="nonzero" d="m51.1875,247.0957l-1.55469,0l0,-103.32813l1.55469,0l0,103.32813" fill="#ffffff"/>
   <path id="svg_155" fill-rule="nonzero" d="m58.36328,247.0957l-1.55078,0l0,-104.01953l1.55078,0l0,104.01953" fill="#ffffff"/>
   <path id="svg_156" fill-rule="nonzero" d="m65.53906,247.0957l-1.55078,0l0,-104.86719l1.55078,0l0,104.86719" fill="#ffffff"/>
   <path id="svg_157" fill-rule="nonzero" d="m72.71875,247.0957l-1.55469,0l0,-105.87109l1.55469,0l0,105.87109" fill="#ffffff"/>
   <path id="svg_158" fill-rule="nonzero" d="m79.89453,247.0957l-1.55078,0l0,-107.02734l1.55078,0l0,107.02734" fill="#ffffff"/>
   <path id="svg_159" fill-rule="nonzero" d="m87.07031,247.0957l-1.55078,0l0,-108.33203l1.55078,0l0,108.33203" fill="#ffffff"/>
   <path id="svg_160" fill-rule="nonzero" d="m94.25,247.0957l-1.55469,0l0,-109.79688l1.55469,0l0,109.79688" fill="#ffffff"/>
   <path id="svg_161" fill-rule="nonzero" d="m101.42578,247.0957l-1.55078,0l0,-111.41797l1.55078,0l0,111.41797" fill="#ffffff"/>
   <path id="svg_162" fill-rule="nonzero" d="m108.60156,247.0957l-1.55078,0l0,-113.19531l1.55078,0l0,113.19531" fill="#ffffff"/>
   <path id="svg_163" fill-rule="nonzero" d="m115.78125,247.0957l-1.55079,0l0,-115.13672l1.55079,0l0,115.13672" fill="#ffffff"/>
   <path id="svg_164" fill-rule="nonzero" d="m122.95703,247.0957l-1.55078,0l0,-117.23438l1.55078,0l0,117.23438" fill="#ffffff"/>
   <path id="svg_165" fill-rule="nonzero" d="m130.13671,247.0957l-1.55078,0l0,-119.50781l1.55078,0l0,119.50781" fill="#ffffff"/>
   <path id="svg_166" fill-rule="nonzero" d="m137.3125,247.0957l-1.55079,0l0,-121.95313l1.55079,0l0,121.95313" fill="#ffffff"/>
   <path id="svg_167" fill-rule="nonzero" d="m144.49218,247.0957l-1.55078,0l0,-124.58594l1.55078,0l0,124.58594" fill="#ffffff"/>
   <path id="svg_168" fill-rule="nonzero" d="m151.66796,247.0957l-1.55078,0l0,-127.41406l1.55078,0l0,127.41406" fill="#ffffff"/>
   <path id="svg_169" fill-rule="nonzero" d="m158.84765,247.0957l-1.55078,0l0,-130.45703l1.55078,0l0,130.45703" fill="#ffffff"/>
   <path id="svg_170" fill-rule="nonzero" d="m166.02343,247.0957l-1.55078,0l0,-133.75391l1.55078,0l0,133.75391" fill="#ffffff"/>
   <path id="svg_171" fill-rule="nonzero" d="m172.42578,224.58398l-150.72657,0l0,-1.55469l150.72657,0l0,1.55469" fill="#ffffff"/>
   <path id="svg_172" fill-rule="nonzero" d="m159.43359,111.89257c0,-4.96093 -1.36328,-8.51562 -1.36328,-8.51562c0,0 -1.36328,3.55469 -1.36328,8.51562c0,0 -0.95313,0.12891 -0.95313,1.60938l1.15625,0.45312l0.39063,2.6836l1.53906,0l0.38672,-2.6836l1.16015,-0.45312c0,-1.48047 -0.95312,-1.60938 -0.95312,-1.60938" fill="#ffffff"/>
   <path id="svg_173" fill-rule="nonzero" d="m156.66015,112.77148c0.33985,-0.20703 0.67969,-0.25 1.02344,-0.25781c0.33984,0.0039 0.67969,0.05078 1.01953,0.25781c-0.33984,0.20703 -0.67969,0.25 -1.01953,0.26172c-0.34375,-0.01172 -0.68359,-0.05469 -1.02344,-0.26172" fill="#ffffff"/>
   <g id="svg_174" clip-path="url(#id4)">
    <path id="svg_175" fill-rule="nonzero" d="m173.78515,104.82226c0,-4.95703 -1.36328,-8.51562 -1.36328,-8.51562c0,0 -1.36328,3.55859 -1.36328,8.51562c0,0 -0.95703,0.12891 -0.95703,1.60547l1.16015,0.45703l0.39063,2.6875l1.54297,0l0.38672,-2.6875l1.16015,-0.45703c0,-1.47656 -0.95703,-1.60547 -0.95703,-1.60547" fill="#ffffff"/>
   </g>
   <path id="svg_176" fill-rule="nonzero" d="m171.01562,105.70117c0.33984,-0.20313 0.67969,-0.25 1.01953,-0.25781c0.34375,0.00781 0.67969,0.05468 1.02344,0.25781c-0.34375,0.20703 -0.67969,0.2539 -1.02344,0.26172c-0.33984,-0.00782 -0.67969,-0.0586 -1.01953,-0.26172" fill="#ffffff"/>
   <path id="svg_177" fill-rule="nonzero" d="m145.07812,117.65039c0,-4.96094 -1.36328,-8.51953 -1.36328,-8.51953c0,0 -1.36328,3.55859 -1.36328,8.51953c0,0 -0.95703,0.1289 -0.95703,1.60937l1.16406,0.45313l0.38672,2.68359l1.53906,0l0.39063,-2.68359l1.16015,-0.45313c0,-1.48047 -0.95703,-1.60937 -0.95703,-1.60937" fill="#ffffff"/>
   <path id="svg_178" fill-rule="nonzero" d="m142.30859,118.52929c0.33984,-0.20703 0.67969,-0.2539 1.01953,-0.25781c0.34375,0.00391 0.68359,0.05078 1.02344,0.25781c-0.33985,0.20703 -0.67969,0.25391 -1.02344,0.25782c-0.33984,-0.00782 -0.67969,-0.05079 -1.01953,-0.25782" fill="#ffffff"/>
   <path id="svg_179" fill-rule="nonzero" d="m130.72656,122.83789c0,-4.96094 -1.36719,-8.51563 -1.36719,-8.51563c0,0 -1.36328,3.55469 -1.36328,8.51563c0,0 -0.95313,0.13281 -0.95313,1.60937l1.16016,0.45703l0.38672,2.6836l1.53906,0l0.39063,-2.6836l1.15625,-0.45703c0,-1.47656 -0.94922,-1.60937 -0.94922,-1.60937" fill="#ffffff"/>
   <path id="svg_180" fill-rule="nonzero" d="m127.95312,123.7207c0.33984,-0.20703 0.67969,-0.25391 1.01953,-0.26172c0.34375,0.00781 0.6836,0.05469 1.02344,0.26172c-0.33984,0.20312 -0.67969,0.25391 -1.02344,0.25781c-0.33984,-0.00781 -0.67969,-0.05469 -1.01953,-0.25781" fill="#ffffff"/>
   <path id="svg_181" fill-rule="nonzero" d="m116.37109,127.21289c0,-4.96094 -1.36328,-8.51563 -1.36328,-8.51563c0,0 -1.36328,3.55469 -1.36328,8.51563c0,0 -0.95703,0.1289 -0.95703,1.60937l1.16015,0.45703l0.38672,2.67969l1.54297,0l0.38672,-2.67969l1.16015,-0.45703c0,-1.48047 -0.95312,-1.60937 -0.95312,-1.60937" fill="#ffffff"/>
   <path id="svg_182" fill-rule="nonzero" d="m113.59765,128.0957c0.33985,-0.20703 0.67969,-0.25391 1.01953,-0.26172c0.34375,0.00781 0.6836,0.05469 1.02344,0.26172c-0.33984,0.20312 -0.67969,0.25 -1.02344,0.25781c-0.33984,-0.00781 -0.67968,-0.05469 -1.01953,-0.25781" fill="#ffffff"/>
   <path id="svg_183" fill-rule="nonzero" d="m102.01562,130.91601c0,-4.96094 -1.36328,-8.51953 -1.36328,-8.51953c0,0 -1.36328,3.55859 -1.36328,8.51953c0,0 -0.95703,0.12891 -0.95703,1.60547l1.16015,0.45313l0.38672,2.6875l1.54297,0l0.39063,-2.6875l1.15625,-0.45313c0,-1.47656 -0.95313,-1.60547 -0.95313,-1.60547" fill="#ffffff"/>
   <path id="svg_184" fill-rule="nonzero" d="m99.24218,131.79492c0.33985,-0.20703 0.67969,-0.25391 1.01953,-0.26172c0.34375,0.00781 0.6875,0.05469 1.02735,0.26172c-0.33985,0.20312 -0.6836,0.25 -1.02735,0.25781c-0.33984,-0.00781 -0.67968,-0.05469 -1.01953,-0.25781" fill="#ffffff"/>
   <path id="svg_185" fill-rule="nonzero" d="m87.66015,134.01367c0,-4.96094 -1.36328,-8.51563 -1.36328,-8.51563c0,0 -1.36328,3.55469 -1.36328,8.51563c0,0 -0.95313,0.1289 -0.95313,1.60937l1.15625,0.45313l0.38672,2.6875l1.54297,0l0.39063,-2.6875l1.15625,-0.45313c0,-1.48047 -0.95313,-1.60937 -0.95313,-1.60937" fill="#ffffff"/>
   <path id="svg_186" fill-rule="nonzero" d="m84.88671,134.89257c0.34375,-0.20312 0.6836,-0.25 1.02344,-0.25781c0.33985,0.00781 0.6836,0.05469 1.02344,0.25781c-0.33984,0.20704 -0.68359,0.25391 -1.02344,0.26172c-0.33984,-0.00781 -0.67969,-0.05859 -1.02344,-0.26172" fill="#ffffff"/>
   <path id="svg_187" fill-rule="nonzero" d="m73.30468,136.48242c0,-4.96094 -1.36328,-8.52344 -1.36328,-8.52344c0,0 -1.36328,3.5625 -1.36328,8.52344c0,0 -0.95312,0.125 -0.95312,1.60547l1.15625,0.45703l0.39062,2.67969l1.53906,0l0.39063,-2.67969l1.15625,-0.45703c0,-1.48047 -0.95313,-1.60547 -0.95313,-1.60547" fill="#ffffff"/>
   <path id="svg_188" fill-rule="nonzero" d="m70.53515,137.36132c0.33985,-0.20703 0.67969,-0.2539 1.01953,-0.26171c0.33985,0.00781 0.6836,0.05468 1.02344,0.26171c-0.33984,0.20704 -0.68359,0.25 -1.02344,0.25782c-0.33984,-0.00782 -0.67968,-0.05469 -1.01953,-0.25782" fill="#ffffff"/>
   <path id="svg_189" fill-rule="nonzero" d="m58.94921,138.33007c0,-4.96093 -1.36328,-8.51953 -1.36328,-8.51953c0,0 -1.36328,3.5586 -1.36328,8.51953c0,0 -0.95312,0.125 -0.95312,1.60547l1.15625,0.45703l0.39062,2.6836l1.54297,0l0.38672,-2.6836l1.16016,-0.45703c0,-1.48047 -0.95704,-1.60547 -0.95704,-1.60547" fill="#ffffff"/>
   <path id="svg_190" fill-rule="nonzero" d="m56.17968,139.20898c0.33985,-0.20312 0.67969,-0.25391 1.01953,-0.26172c0.33985,0.00781 0.6836,0.05469 1.02344,0.26172c-0.33984,0.20703 -0.68359,0.25 -1.02344,0.25781c-0.33984,-0.00781 -0.67968,-0.05468 -1.01953,-0.25781" fill="#ffffff"/>
   <path id="svg_191" fill-rule="nonzero" d="m44.59375,139.56054c0,-4.95703 -1.36329,-8.51562 -1.36329,-8.51562c0,0 -1.36328,3.55859 -1.36328,8.51562c0,0 -0.95312,0.12891 -0.95312,1.60938l1.16015,0.45312l0.38672,2.6875l1.54297,0l0.38672,-2.6875l1.16016,-0.45312c0,-1.48047 -0.95703,-1.60938 -0.95703,-1.60938" fill="#ffffff"/>
   <path id="svg_192" fill-rule="nonzero" d="m41.82031,140.44336c0.34375,-0.20313 0.6875,-0.25391 1.02734,-0.26172c0.33985,0.00781 0.67969,0.05468 1.01953,0.26172c-0.33984,0.20312 -0.67968,0.25 -1.01953,0.26171c-0.33984,-0.01171 -0.68359,-0.05859 -1.02734,-0.26171" fill="#ffffff"/>
   <path id="svg_193" fill-rule="nonzero" d="m30.23828,140.18554c0,-4.96093 -1.36328,-8.51953 -1.36328,-8.51953c0,0 -1.36329,3.5586 -1.36329,8.51953c0,0 -0.95312,0.12891 -0.95312,1.60938l1.16016,0.45312l0.38671,2.6836l1.54297,0l0.38672,-2.6836l1.16016,-0.45312c0,-1.48047 -0.95703,-1.60938 -0.95703,-1.60938" fill="#ffffff"/>
   <path id="svg_194" fill-rule="nonzero" d="m27.46875,141.06445c0.33984,-0.20313 0.67968,-0.25 1.02343,-0.25781c0.33985,0.0039 0.67969,0.05078 1.01953,0.25781c-0.33984,0.20703 -0.67968,0.25 -1.01953,0.25781c-0.34375,-0.00781 -0.68359,-0.05078 -1.02343,-0.25781" fill="#ffffff"/>
   <path id="svg_195" fill-rule="nonzero" d="m25.28906,153.80273c-1.55078,0 -2.8125,1.26172 -2.8125,2.81641c0,1.55078 1.26172,2.8164 2.8125,2.8164c1.55078,0 2.8125,-1.26562 2.8125,-2.8164c0,-1.55469 -1.26172,-2.81641 -2.8125,-2.81641zm0,7.18359c-2.40625,0 -4.36328,-1.96093 -4.36328,-4.36718c0,-2.41016 1.95703,-4.3711 4.36328,-4.3711c2.40625,0 4.36328,1.96094 4.36328,4.3711c0,2.40625 -1.95703,4.36718 -4.36328,4.36718" fill="#ffffff"/>
   <path id="svg_196" fill-rule="nonzero" d="m25.28906,232.63086c-1.55078,0 -2.8125,1.26562 -2.8125,2.82031c0,1.55078 1.26172,2.8164 2.8125,2.8164c1.55078,0 2.8125,-1.26562 2.8125,-2.8164c0,-1.55469 -1.26172,-2.82031 -2.8125,-2.82031zm0,7.1875c-2.40625,0 -4.36328,-1.96094 -4.36328,-4.36719c0,-2.41016 1.95703,-4.3711 4.36328,-4.3711c2.40625,0 4.36328,1.96094 4.36328,4.3711c0,2.40625 -1.95703,4.36719 -4.36328,4.36719" fill="#ffffff"/>
   <path id="svg_197" fill-rule="nonzero" d="m39.64453,232.63086c-1.55078,0 -2.8125,1.26562 -2.8125,2.82031c0,1.55078 1.26172,2.8164 2.8125,2.8164c1.55078,0 2.8125,-1.26562 2.8125,-2.8164c0,-1.55469 -1.26172,-2.82031 -2.8125,-2.82031zm0,7.1875c-2.40625,0 -4.36328,-1.96094 -4.36328,-4.36719c0,-2.41016 1.95703,-4.3711 4.36328,-4.3711c2.40625,0 4.36328,1.96094 4.36328,4.3711c0,2.40625 -1.95703,4.36719 -4.36328,4.36719" fill="#ffffff"/>
   <path id="svg_198" fill-rule="nonzero" d="m54,232.63086c-1.55079,0 -2.8125,1.26562 -2.8125,2.82031c0,1.55078 1.26171,2.8164 2.8125,2.8164c1.55078,0 2.8125,-1.26562 2.8125,-2.8164c0,-1.55469 -1.26172,-2.82031 -2.8125,-2.82031zm0,7.1875c-2.40625,0 -4.36719,-1.96094 -4.36719,-4.36719c0,-2.41016 1.96094,-4.3711 4.36719,-4.3711c2.40625,0 4.36328,1.96094 4.36328,4.3711c0,2.40625 -1.95703,4.36719 -4.36328,4.36719" fill="#ffffff"/>
   <path id="svg_199" fill-rule="nonzero" d="m68.35156,232.63086c-1.55078,0 -2.8125,1.26562 -2.8125,2.82031c0,1.55078 1.26172,2.8164 2.8125,2.8164c1.55469,0 2.8125,-1.26562 2.8125,-2.8164c0,-1.55469 -1.25781,-2.82031 -2.8125,-2.82031zm0,7.1875c-2.40625,0 -4.36328,-1.96094 -4.36328,-4.36719c0,-2.41016 1.95703,-4.3711 4.36328,-4.3711c2.40625,0 4.36719,1.96094 4.36719,4.3711c0,2.40625 -1.96094,4.36719 -4.36719,4.36719" fill="#ffffff"/>
   <path id="svg_200" fill-rule="nonzero" d="m82.70703,232.63086c-1.54688,0 -2.8125,1.26562 -2.8125,2.82031c0,1.55078 1.26562,2.8164 2.8125,2.8164c1.55078,0 2.8125,-1.26562 2.8125,-2.8164c0,-1.55469 -1.26172,-2.82031 -2.8125,-2.82031zm0,7.1875c-2.40625,0 -4.36328,-1.96094 -4.36328,-4.36719c0,-2.41016 1.95703,-4.3711 4.36328,-4.3711c2.40625,0 4.36328,1.96094 4.36328,4.3711c0,2.40625 -1.95703,4.36719 -4.36328,4.36719" fill="#ffffff"/>
   <path id="svg_201" fill-rule="nonzero" d="m97.0625,232.63086c-1.55079,0 -2.8125,1.26562 -2.8125,2.82031c0,1.55078 1.26171,2.8164 2.8125,2.8164c1.55078,0 2.8125,-1.26562 2.8125,-2.8164c0,-1.55469 -1.26172,-2.82031 -2.8125,-2.82031zm0,7.1875c-2.40625,0 -4.36329,-1.96094 -4.36329,-4.36719c0,-2.41016 1.95704,-4.3711 4.36329,-4.3711c2.40625,0 4.36328,1.96094 4.36328,4.3711c0,2.40625 -1.95703,4.36719 -4.36328,4.36719" fill="#ffffff"/>
   <path id="svg_202" fill-rule="nonzero" d="m111.41796,232.63086c-1.55078,0 -2.8125,1.26562 -2.8125,2.82031c0,1.55078 1.26172,2.8164 2.8125,2.8164c1.55079,0 2.8125,-1.26562 2.8125,-2.8164c0,-1.55469 -1.26171,-2.82031 -2.8125,-2.82031zm0,7.1875c-2.40625,0 -4.36328,-1.96094 -4.36328,-4.36719c0,-2.41016 1.95703,-4.3711 4.36328,-4.3711c2.40625,0 4.36329,1.96094 4.36329,4.3711c0,2.40625 -1.95704,4.36719 -4.36329,4.36719" fill="#ffffff"/>
   <path id="svg_203" fill-rule="nonzero" d="m125.77343,232.63086c-1.55078,0 -2.8125,1.26562 -2.8125,2.82031c0,1.55078 1.26172,2.8164 2.8125,2.8164c1.55078,0 2.8125,-1.26562 2.8125,-2.8164c0,-1.55469 -1.26172,-2.82031 -2.8125,-2.82031zm0,7.1875c-2.40625,0 -4.36328,-1.96094 -4.36328,-4.36719c0,-2.41016 1.95703,-4.3711 4.36328,-4.3711c2.40625,0 4.36328,1.96094 4.36328,4.3711c0,2.40625 -1.95703,4.36719 -4.36328,4.36719" fill="#ffffff"/>
   <path id="svg_204" fill-rule="nonzero" d="m140.1289,232.63086c-1.55078,0 -2.8125,1.26562 -2.8125,2.82031c0,1.55078 1.26172,2.8164 2.8125,2.8164c1.55078,0 2.8125,-1.26562 2.8125,-2.8164c0,-1.55469 -1.26172,-2.82031 -2.8125,-2.82031zm0,7.1875c-2.40625,0 -4.36328,-1.96094 -4.36328,-4.36719c0,-2.41016 1.95703,-4.3711 4.36328,-4.3711c2.40625,0 4.36328,1.96094 4.36328,4.3711c0,2.40625 -1.95703,4.36719 -4.36328,4.36719" fill="#ffffff"/>
   <path id="svg_205" fill-rule="nonzero" d="m154.48437,232.63086c-1.55078,0 -2.8125,1.26562 -2.8125,2.82031c0,1.55078 1.26172,2.8164 2.8125,2.8164c1.55078,0 2.8125,-1.26562 2.8125,-2.8164c0,-1.55469 -1.26172,-2.82031 -2.8125,-2.82031zm0,7.1875c-2.40625,0 -4.36719,-1.96094 -4.36719,-4.36719c0,-2.41016 1.96094,-4.3711 4.36719,-4.3711c2.40625,0 4.36328,1.96094 4.36328,4.3711c0,2.40625 -1.95703,4.36719 -4.36328,4.36719" fill="#ffffff"/>
   <path id="svg_206" fill-rule="nonzero" d="m168.83984,232.63086c-1.55469,0 -2.81641,1.26562 -2.81641,2.82031c0,1.55078 1.26172,2.8164 2.81641,2.8164c1.55078,0 2.8125,-1.26562 2.8125,-2.8164c0,-1.55469 -1.26172,-2.82031 -2.8125,-2.82031zm0,7.1875c-2.40625,0 -4.36719,-1.96094 -4.36719,-4.36719c0,-2.41016 1.96094,-4.3711 4.36719,-4.3711c2.40234,0 4.36328,1.96094 4.36328,4.3711c0,2.40625 -1.96094,4.36719 -4.36328,4.36719" fill="#ffffff"/>
   <path id="svg_207" fill-rule="nonzero" d="m39.64453,153.80273c-1.55078,0 -2.8125,1.26172 -2.8125,2.81641c0,1.55078 1.26172,2.8164 2.8125,2.8164c1.55078,0 2.8125,-1.26562 2.8125,-2.8164c0,-1.55469 -1.26172,-2.81641 -2.8125,-2.81641zm0,7.18359c-2.40625,0 -4.36328,-1.96093 -4.36328,-4.36718c0,-2.41016 1.95703,-4.3711 4.36328,-4.3711c2.40625,0 4.36328,1.96094 4.36328,4.3711c0,2.40625 -1.95703,4.36718 -4.36328,4.36718" fill="#ffffff"/>
   <path id="svg_208" fill-rule="nonzero" d="m54,152.74414c-1.55079,0 -2.8125,1.26172 -2.8125,2.8164c0,1.55078 1.26171,2.81641 2.8125,2.81641c1.55078,0 2.8125,-1.26563 2.8125,-2.81641c0,-1.55468 -1.26172,-2.8164 -2.8125,-2.8164zm0,7.18359c-2.40625,0 -4.36719,-1.95703 -4.36719,-4.36719c0,-2.41015 1.96094,-4.37109 4.36719,-4.37109c2.40625,0 4.36328,1.96094 4.36328,4.37109c0,2.41016 -1.95703,4.36719 -4.36328,4.36719" fill="#ffffff"/>
   <path id="svg_209" fill-rule="nonzero" d="m68.35156,151.17382c-1.55078,0 -2.8125,1.26172 -2.8125,2.8125c0,1.55469 1.26172,2.82032 2.8125,2.82032c1.55469,0 2.8125,-1.26563 2.8125,-2.82032c0,-1.55078 -1.25781,-2.8125 -2.8125,-2.8125zm0,7.1836c-2.40625,0 -4.36328,-1.95703 -4.36328,-4.3711c0,-2.40625 1.95703,-4.36328 4.36328,-4.36328c2.40625,0 4.36719,1.95703 4.36719,4.36328c0,2.41407 -1.96094,4.3711 -4.36719,4.3711" fill="#ffffff"/>
   <path id="svg_210" fill-rule="nonzero" d="m82.70703,148.65429c-1.55078,0 -2.8125,1.26172 -2.8125,2.81641c0,1.55469 1.26172,2.81641 2.8125,2.81641c1.55078,0 2.8125,-1.26172 2.8125,-2.81641c0,-1.55469 -1.26172,-2.81641 -2.8125,-2.81641zm0,7.1836c-2.40625,0 -4.36328,-1.96094 -4.36328,-4.36719c0,-2.41016 1.95703,-4.37109 4.36328,-4.37109c2.40625,0 4.36328,1.96093 4.36328,4.37109c0,2.40625 -1.95703,4.36719 -4.36328,4.36719" fill="#ffffff"/>
   <path id="svg_211" fill-rule="nonzero" d="m97.0625,145.73632c-1.55079,0 -2.8125,1.26172 -2.8125,2.82032c0,1.55078 1.26171,2.8125 2.8125,2.8125c1.55078,0 2.8125,-1.26172 2.8125,-2.8125c0,-1.5586 -1.26172,-2.82032 -2.8125,-2.82032zm0,7.1875c-2.40625,0 -4.36719,-1.96093 -4.36719,-4.36718c0,-2.41016 1.96094,-4.3711 4.36719,-4.3711c2.40625,0 4.36328,1.96094 4.36328,4.3711c0,2.40625 -1.95703,4.36718 -4.36328,4.36718" fill="#ffffff"/>
   <path id="svg_212" fill-rule="nonzero" d="m111.41406,141.86914c-1.55078,0 -2.8125,1.26562 -2.8125,2.82031c0,1.55078 1.26172,2.81641 2.8125,2.81641c1.55469,0 2.8164,-1.26563 2.8164,-2.81641c0,-1.55469 -1.26171,-2.82031 -2.8164,-2.82031zm0,7.1875c-2.40235,0 -4.36328,-1.95703 -4.36328,-4.36719c0,-2.41016 1.96093,-4.37109 4.36328,-4.37109c2.40625,0 4.36719,1.96093 4.36719,4.37109c0,2.41016 -1.96094,4.36719 -4.36719,4.36719" fill="#ffffff"/>
   <path id="svg_213" fill-rule="nonzero" d="m125.76953,138.07226c-1.55078,0 -2.8125,1.26563 -2.8125,2.81641c0,1.55469 1.26172,2.8164 2.8125,2.8164c1.55078,0 2.8125,-1.26171 2.8125,-2.8164c0,-1.55078 -1.26172,-2.81641 -2.8125,-2.81641zm0,7.1875c-2.40625,0 -4.36328,-1.96094 -4.36328,-4.37109c0,-2.40625 1.95703,-4.36719 4.36328,-4.36719c2.40625,0 4.36328,1.96094 4.36328,4.36719c0,2.41015 -1.95703,4.37109 -4.36328,4.37109" fill="#ffffff"/>
   <path id="svg_214" fill-rule="nonzero" d="m140.125,133.05664c-1.55079,0 -2.8125,1.26562 -2.8125,2.8164c0,1.55469 1.26171,2.81641 2.8125,2.81641c1.55078,0 2.8125,-1.26172 2.8125,-2.81641c0,-1.55078 -1.26172,-2.8164 -2.8125,-2.8164zm0,7.1875c-2.40625,0 -4.36329,-1.96094 -4.36329,-4.3711c0,-2.41015 1.95704,-4.36718 4.36329,-4.36718c2.40625,0 4.36328,1.95703 4.36328,4.36718c0,2.41016 -1.95703,4.3711 -4.36328,4.3711" fill="#ffffff"/>
   <path id="svg_215" fill-rule="nonzero" d="m154.48046,127.54882c-1.55468,0 -2.8125,1.26172 -2.8125,2.8125c0,1.55469 1.25782,2.81641 2.8125,2.81641c1.55079,0 2.8125,-1.26172 2.8125,-2.81641c0,-1.55078 -1.26171,-2.8125 -2.8125,-2.8125zm0,7.17969c-2.40625,0 -4.36718,-1.95703 -4.36718,-4.36719c0,-2.40625 1.96093,-4.36718 4.36718,-4.36718c2.40625,0 4.36329,1.96093 4.36329,4.36718c0,2.41016 -1.95704,4.36719 -4.36329,4.36719" fill="#ffffff"/>
   <path id="svg_216" fill-rule="nonzero" d="m168.83203,120.45507c-1.55078,0 -2.8125,1.26563 -2.8125,2.82032c0,1.55078 1.26172,2.8164 2.8125,2.8164c1.55468,0 2.8164,-1.26562 2.8164,-2.8164c0,-1.55469 -1.26172,-2.82032 -2.8164,-2.82032zm0,7.1875c-2.40625,0 -4.36328,-1.95703 -4.36328,-4.36718c0,-2.40625 1.95703,-4.3711 4.36328,-4.3711c2.40625,0 4.36718,1.96485 4.36718,4.3711c0,2.41015 -1.96093,4.36718 -4.36718,4.36718" fill="#ffffff"/>
   <path id="svg_217" fill-rule="nonzero" d="m16.8125,252.91601l2.32812,0l0,-118.02344l-2.32812,0l0,118.02344" fill="#ffffff"/>
   <g id="svg_218" clip-path="url(#id5)">
    <path id="svg_219" fill-rule="nonzero" d="m17.58984,252.14257l0.77344,0l0,-116.47265l-0.77344,0l0,116.47265zm2.32422,1.55079l-3.87891,0l0,-119.57422l3.87891,0l0,119.57422" fill="#ffffff"/>
   </g>
   <path id="svg_220" fill-rule="nonzero" d="m20.30078,133.11914c0,1.28906 -1.04297,2.32812 -2.32813,2.32812c-1.28125,0 -2.32031,-1.03906 -2.32031,-2.32812c0,-1.28125 1.03906,-2.32422 2.32031,-2.32422c1.28516,0 2.32813,1.04297 2.32813,2.32422" fill="#ffffff"/>
   <g id="svg_221" clip-path="url(#id6)">
    <path id="svg_222" fill-rule="nonzero" d="m17.97265,131.56836c-0.85156,0 -1.54687,0.69531 -1.54687,1.55078c0,0.85547 0.69531,1.55078 1.54687,1.55078c0.85547,0 1.55078,-0.69531 1.55078,-1.55078c0,-0.85547 -0.69531,-1.55078 -1.55078,-1.55078zm0,4.65234c-1.70703,0 -3.09765,-1.38672 -3.09765,-3.10156c0,-1.71094 1.39062,-3.10157 3.09765,-3.10157c1.71094,0 3.10156,1.39063 3.10156,3.10157c0,1.71484 -1.39062,3.10156 -3.10156,3.10156" fill="#ffffff"/>
   </g>
  </g>
 </g>
</svg>