<svg width="300" height="300" xmlns="http://www.w3.org/2000/svg" version="1.0" preserveAspectRatio="xMidYMid meet" zoomAndPan="magnify">
 <title>Portail</title>

 <g>
  <title>Layer 1</title>
  <g id="svg_29">
   <path id="svg_2" fill-rule="nonzero" d="m71.50391,100.09476c0,1.37891 1.11718,2.5 2.5,2.5c1.3789,0 2.5,-1.12109 2.5,-2.5l0,-9.33594c0,-1.3789 -1.1211,-2.5 -2.5,-2.5l-16.47266,0c-1.38281,0 -2.5,1.1211 -2.5,2.5l0,9.33594c0,1.37891 1.11719,2.5 2.5,2.5c1.37891,0 2.5,-1.12109 2.5,-2.5l0,-6.83594l11.47266,0l0,6.83594zm0,0" fill="#ffffff"/>
   <path id="svg_3" fill-rule="nonzero" d="m223.49609,100.09476c0,1.37891 1.1211,2.5 2.5,2.5c1.38282,0 2.5,-1.12109 2.5,-2.5l0,-6.83594l11.47266,0l0,6.83594c0,1.37891 1.12109,2.5 2.5,2.5c1.38281,0 2.5,-1.12109 2.5,-2.5l0,-9.33594c0,-1.3789 -1.11719,-2.5 -2.5,-2.5l-16.47266,0c-1.3789,0 -2.5,1.1211 -2.5,2.5l0,9.33594zm0,0" fill="#ffffff"/>
   <path id="svg_4" fill-rule="nonzero" d="m223.75,91.85257c0.60547,1.24219 2.10156,1.75782 3.33984,1.15235c1.24219,-0.60157 1.75782,-2.09766 1.15235,-3.33985l-7.78516,-15.94531l13.84375,-11.38672l12.34766,11.01172l-6.50391,16.50781c-0.5,1.28125 0.13281,2.73047 1.41797,3.23047c1.28516,0.5 2.73047,-0.13281 3.23047,-1.41406l7.07812,-17.96875c0.45704,-0.97266 0.2461,-2.17188 -0.59765,-2.92578l-0.00391,0l-15.14453,-13.50391c-0.89844,-0.89062 -2.34375,-0.97265 -3.33984,-0.15234l0.0039,0.00781l-16.85547,13.86328c-1.00781,0.69141 -1.38281,2.03125 -0.83203,3.16016l0.00391,-0.00391l8.64453,17.70703zm0,0" fill="#ffffff"/>
   <path id="svg_5" fill-rule="nonzero" d="m54.74609,119.86039c0,-1.37891 -1.12109,-2.5 -2.5,-2.5c-1.38281,0 -2.5,1.12109 -2.5,2.5l0,121.08984c0,1.38281 1.11719,2.5 2.5,2.5l28.55079,0c1.3789,0 2.5,-1.11719 2.5,-2.5l0,-121.08984c0,-1.37891 -1.1211,-2.5 -2.5,-2.5c-1.37891,0 -2.5,1.12109 -2.5,2.5l0,118.58984l-23.55079,0l0,-118.58984zm0,0" fill="#ffffff"/>
   <path id="svg_6" fill-rule="nonzero" d="m84.70703,102.59476l-36.375,0l0,14.76563l36.375,0l0,-14.76563zm0,0" fill="#ffffff"/>
   <path id="svg_7" fill-rule="nonzero" d="m45.83203,97.59476l41.375,0c1.38281,0 2.5,1.11719 2.5,2.5l0,19.76563c0,1.3789 -1.11719,2.5 -2.5,2.5l-41.375,0c-1.3789,0 -2.5,-1.1211 -2.5,-2.5l0,-19.76563c0,-1.38281 1.1211,-2.5 2.5,-2.5zm0,0" fill="#ffffff"/>
   <path id="svg_8" fill-rule="nonzero" d="m71.75781,89.66507c-0.60547,1.23828 -0.08984,2.73438 1.15235,3.33985c1.23828,0.60547 2.73437,0.08984 3.33984,-1.15235l8.64453,-17.70703l0.00391,0.00391c0.55078,-1.12891 0.17578,-2.46875 -0.83203,-3.16016l-16.85547,-13.86328l0.00781,-0.00781c-1,-0.82031 -2.44531,-0.73828 -3.34375,0.15234l-15.14453,13.50391l-0.00391,0c-0.84375,0.7539 -1.05468,1.95312 -0.59765,2.92578l7.07812,17.96484c0.5,1.28516 1.94922,1.91797 3.23047,1.41797c1.28516,-0.5 1.91797,-1.94922 1.41797,-3.23047l-6.50391,-16.50781l12.34766,-11.01172l13.84375,11.38672l-7.78516,15.94531zm0,0" fill="#ffffff"/>
   <path id="svg_9" fill-rule="nonzero" d="m94.05469,230.35257l49.61328,0l-0.61328,-108.40234c-16.07813,-0.82813 -20.71875,2.56641 -32.26953,11.02734c-1.1875,0.86719 -2.42578,1.77344 -3.03125,2.21875c-2.1211,1.53516 -4.45703,3.12891 -7.16797,4.73828c-2.3125,1.3711 -4.88281,2.75 -7.80078,4.10157l1.26953,86.3164zm14.03125,5l-16.48438,0c-1.36328,0 -2.47656,-1.09375 -2.5,-2.46093l0.01172,-0.00782l-1.33203,-90.1914c-0.10547,-1.04688 0.46094,-2.09375 1.47656,-2.54297l0.00782,0c3.35546,-1.48438 6.23828,-3.00391 8.78125,-4.51172c2.53515,-1.50781 4.7539,-3.01953 6.77343,-4.48828c1.51172,-1.09375 2.28516,-1.66016 3.01563,-2.19531c13.13281,-9.61719 18.0625,-13.22657 37.73047,-11.85157c1.35937,0.01953 2.45703,1.1211 2.46484,2.48828l-0.01172,0.00391l0.64453,113.02344c0.00391,0.07812 0.00782,0.15625 0.00782,0.23437c0,1.38282 -1.11719,2.5 -2.5,2.5l-38.08594,0zm0,0" fill="#ffffff"/>
   <path id="svg_10" fill-rule="nonzero" d="m105.58594,232.85257c0,1.38282 1.12109,2.5 2.5,2.5c1.3789,0 2.5,-1.11718 2.5,-2.5l0,-101.01172c0,-1.3789 -1.1211,-2.5 -2.5,-2.5c-1.37891,0 -2.5,1.1211 -2.5,2.5l0,101.01172zm0,0" fill="#ffffff"/>
   <path id="svg_11" fill-rule="nonzero" d="m122.91797,123.44632c0,-1.3789 -1.12109,-2.5 -2.5,-2.5c-1.38281,0 -2.5,1.1211 -2.5,2.5l0,109.40625c0,1.38282 1.11719,2.5 2.5,2.5c1.37891,0 2.5,-1.11718 2.5,-2.5l0,-109.40625zm0,0" fill="#ffffff"/>
   <path id="svg_12" fill-rule="nonzero" d="m136.67188,119.47367c0,-1.37891 -1.11719,-2.5 -2.5,-2.5c-1.37891,0 -2.5,1.12109 -2.5,2.5l0,113.3789c0,1.38282 1.12109,2.5 2.5,2.5c1.38281,0 2.5,-1.11718 2.5,-2.5l0,-113.3789zm0,0" fill="#ffffff"/>
   <path id="svg_13" fill-rule="nonzero" d="m148.04297,108.3682c0,-1.37891 -1.12109,-2.5 -2.5,-2.5c-1.38281,0 -2.5,1.12109 -2.5,2.5l0,11.23437c0,1.38282 1.11719,2.5 2.5,2.5c1.37891,0 2.5,-1.11718 2.5,-2.5l0,-11.23437zm0,0" fill="#ffffff"/>
   <path id="svg_14" fill-rule="nonzero" d="m91.27734,208.20023c-1.38281,0 -2.5,1.12109 -2.5,2.5c0,1.38281 1.11719,2.5 2.5,2.5l54.76954,0c1.3789,0 2.5,-1.11719 2.5,-2.5c0,-1.37891 -1.1211,-2.5 -2.5,-2.5l-54.76954,0zm0,0" fill="#ffffff"/>
   <path id="svg_15" fill-rule="nonzero" d="m80.79688,148.54007c-1.37891,0 -2.5,1.1211 -2.5,2.5c0,1.37891 1.12109,2.5 2.5,2.5l9.60156,0c1.3789,0 2.5,-1.12109 2.5,-2.5c0,-1.3789 -1.1211,-2.5 -2.5,-2.5l-9.60156,0zm9.80078,18.64063c1.3789,0 2.5,-1.11719 2.5,-2.5c0,-1.37891 -1.1211,-2.5 -2.5,-2.5l-9.80078,0c-1.37891,0 -2.5,1.12109 -2.5,2.5c0,1.38281 1.12109,2.5 2.5,2.5l9.80078,0zm0,0" fill="#ffffff"/>
   <path id="svg_16" fill-rule="nonzero" d="m80.79688,203.11039c-1.37891,0 -2.5,1.11718 -2.5,2.5c0,1.3789 1.12109,2.5 2.5,2.5l10.40234,0c1.38281,0 2.5,-1.1211 2.5,-2.5c0,-1.38282 -1.11719,-2.5 -2.5,-2.5l-10.40234,0zm10.60546,18.64062c1.37891,0 2.5,-1.11719 2.5,-2.5c0,-1.37891 -1.12109,-2.5 -2.5,-2.5l-10.60546,0c-1.37891,0 -2.5,1.12109 -2.5,2.5c0,1.38281 1.12109,2.5 2.5,2.5l10.60546,0zm0,0" fill="#ffffff"/>
   <path id="svg_17" fill-rule="nonzero" d="m250.25781,119.86039c0,-1.37891 -1.12109,-2.5 -2.5,-2.5c-1.38281,0 -2.5,1.12109 -2.5,2.5l0,118.58984l-23.55468,0l0,-118.58984c0,-1.37891 -1.11719,-2.5 -2.5,-2.5c-1.37891,0 -2.5,1.12109 -2.5,2.5l0,121.08984c0,1.38281 1.12109,2.5 2.5,2.5l28.55468,0c1.37891,0 2.5,-1.11719 2.5,-2.5l0,-121.08984zm0,0" fill="#ffffff"/>
   <path id="svg_18" fill-rule="nonzero" d="m212.79297,97.59476l41.375,0c1.37891,0 2.5,1.11719 2.5,2.5l0,19.76563c0,1.3789 -1.12109,2.5 -2.5,2.5l-41.375,0c-1.38281,0 -2.5,-1.1211 -2.5,-2.5l0,-19.76563c0,-1.38281 1.11719,-2.5 2.5,-2.5zm0,0" fill="#ffffff"/>
   <path id="svg_19" fill-rule="nonzero" d="m208.39844,235.35257l-54.57031,0c-1.38282,0 -2.5,-1.11718 -2.5,-2.5c0,-0.07812 0.0039,-0.15625 0.01171,-0.23437l0.64063,-113.02344l-0.01172,-0.00391c0.00781,-1.36718 1.10938,-2.46875 2.46484,-2.48828c19.66797,-1.375 24.59766,2.23438 37.73047,11.85157c0.73438,0.53515 1.50391,1.10156 3.01563,2.19531c2.02344,1.46875 4.23828,2.98047 6.77344,4.48828c2.54296,1.50781 5.42578,3.02734 8.78515,4.51172l-1.00781,2.28515l1.01172,-2.28515c1.01562,0.44922 1.58594,1.49609 1.47656,2.54297l-1.32812,90.1914l0.00781,0.00782c-0.01953,1.36718 -1.13672,2.46093 -2.5,2.46093zm-16.48438,-5l14.03125,0l1.27344,-86.3164c-2.92187,-1.35157 -5.49219,-2.73047 -7.80469,-4.10157c-2.70703,-1.60937 -5.04687,-3.20312 -7.16406,-4.73828c-0.60937,-0.44531 -1.84766,-1.35156 -3.03125,-2.21875c-11.55469,-8.46093 -16.19531,-11.85547 -32.27344,-11.02734l-0.61328,108.40234l35.58203,0zm0,0" fill="#ffffff"/>
   <path id="svg_20" fill-rule="nonzero" d="m189.41406,232.85257c0,1.38282 1.1211,2.5 2.5,2.5c1.37891,0 2.5,-1.11718 2.5,-2.5l0,-101.01172c0,-1.3789 -1.12109,-2.5 -2.5,-2.5c-1.3789,0 -2.5,1.1211 -2.5,2.5l0,101.01172zm0,0" fill="#ffffff"/>
   <path id="svg_21" fill-rule="nonzero" d="m182.08594,123.44632c0,-1.3789 -1.1211,-2.5 -2.5,-2.5c-1.38281,0 -2.5,1.1211 -2.5,2.5l0,109.40625c0,1.38282 1.11719,2.5 2.5,2.5c1.3789,0 2.5,-1.11718 2.5,-2.5l0,-109.40625zm0,0" fill="#ffffff"/>
   <path id="svg_22" fill-rule="nonzero" d="m168.32813,119.47367c0,-1.37891 -1.11719,-2.5 -2.5,-2.5c-1.37891,0 -2.5,1.12109 -2.5,2.5l0,113.3789c0,1.38282 1.12109,2.5 2.5,2.5c1.38281,0 2.5,-1.11718 2.5,-2.5l0,-113.3789zm0,0" fill="#ffffff"/>
   <path id="svg_23" fill-rule="nonzero" d="m156.95703,108.3682c0,-1.37891 -1.11719,-2.5 -2.5,-2.5c-1.3789,0 -2.5,1.12109 -2.5,2.5l0,11.23437c0,1.38282 1.1211,2.5 2.5,2.5c1.38281,0 2.5,-1.11718 2.5,-2.5l0,-11.23437zm0,0" fill="#ffffff"/>
   <path id="svg_24" fill-rule="nonzero" d="m208.72656,213.20023c1.37891,0 2.5,-1.11719 2.5,-2.5c0,-1.37891 -1.12109,-2.5 -2.5,-2.5l-54.77343,0c-1.37891,0 -2.5,1.12109 -2.5,2.5c0,1.38281 1.12109,2.5 2.5,2.5l54.77343,0zm0,0" fill="#ffffff"/>
   <path id="svg_25" fill-rule="nonzero" d="m219.20313,153.54007c1.38281,0 2.5,-1.12109 2.5,-2.5c0,-1.3789 -1.11719,-2.5 -2.5,-2.5l-9.59766,0c-1.38281,0 -2.5,1.1211 -2.5,2.5c0,1.37891 1.11719,2.5 2.5,2.5l9.59766,0zm-9.80079,8.64063c-1.3789,0 -2.5,1.12109 -2.5,2.5c0,1.38281 1.1211,2.5 2.5,2.5l9.80079,0c1.38281,0 2.5,-1.11719 2.5,-2.5c0,-1.37891 -1.11719,-2.5 -2.5,-2.5l-9.80079,0zm0,0" fill="#ffffff"/>
   <path id="svg_26" fill-rule="nonzero" d="m219.20313,208.11039c1.38281,0 2.5,-1.1211 2.5,-2.5c0,-1.38282 -1.11719,-2.5 -2.5,-2.5l-10.40235,0c-1.38281,0 -2.5,1.11718 -2.5,2.5c0,1.3789 1.11719,2.5 2.5,2.5l10.40235,0zm-10.60547,8.64062c-1.37891,0 -2.5,1.12109 -2.5,2.5c0,1.38281 1.12109,2.5 2.5,2.5l10.60547,0c1.38281,0 2.5,-1.11719 2.5,-2.5c0,-1.37891 -1.11719,-2.5 -2.5,-2.5l-10.60547,0zm0,0" fill="#ffffff"/>
   <path id="svg_27" fill-rule="nonzero" d="m61.61328,127.8682c0,-1.37891 -1.12109,-2.5 -2.5,-2.5c-1.3789,0 -2.5,1.12109 -2.5,2.5l0,104.6875c0,1.3789 1.1211,2.5 2.5,2.5l14.58203,0c1.38282,0 2.5,-1.1211 2.5,-2.5c0,-1.37891 -1.11718,-2.5 -2.5,-2.5l-12.08203,0l0,-102.1875zm0,0" fill="#ffffff"/>
   <path id="svg_28" fill-rule="nonzero" d="m242.86328,127.8682c0,-1.37891 -1.11719,-2.5 -2.5,-2.5c-1.3789,0 -2.5,1.12109 -2.5,2.5l0,102.1875l-12.08203,0c-1.38281,0 -2.5,1.12109 -2.5,2.5c0,1.3789 1.11719,2.5 2.5,2.5l14.58203,0c1.37891,0 2.5,-1.1211 2.5,-2.5l0,-104.6875zm0,0" fill="#ffffff"/>
  </g>
 </g>
</svg>